<?xml version="1.0" encoding="UTF-8"?>
<!-- Generated by Pixelmator Pro 2.4.5 -->
<svg width="512" height="512" viewBox="0 0 512 512" xmlns="http://www.w3.org/2000/svg" xmlns:xlink="http://www.w3.org/1999/xlink">
    <g id="layer1">
        <g id="g2510">
            <g id="g2739">
                <radialGradient id="radialGradient1" cx="220.534087" cy="347.911372" r="181.703521" fx="220.534087" fy="347.911372" gradientUnits="userSpaceOnUse">
                    <stop offset="1e-05" stop-color="#b4e57c" stop-opacity="1"/>
                    <stop offset="1" stop-color="#0d8a18" stop-opacity="1"/>
                </radialGradient>
                <path id="path3276" fill="url(#radialGradient1)" stroke="none" d="M 258.189789 157.549896 C 160.295822 116.657898 99.879532 201.109558 99.871346 289.387756 C 99.863159 377.665985 192.02092 465.64093 260.776917 431.676361 C 263.395935 430.382599 275.396881 430.773895 277.818756 431.677948 C 345.79364 457.050903 379.291382 410.36499 404.215027 358.059113 C 365.341858 349.030334 336.349396 314.194275 336.353241 272.58728 C 336.356537 237.298615 357.257568 206.767456 387.311249 192.830658 C 358.102356 154.331299 316.62262 128.696808 258.189789 157.549896 Z"/>
                <path id="path3258" fill="#fdf9f6" fill-opacity="0.249042" stroke="none" d="M 303.679504 145.121338 C 289.817291 145.542114 274.689301 149.365997 258.248138 157.480957 C 172.86174 121.828583 115.940437 181.427094 102.758995 255.7995 C 127.679306 303.470245 178.631989 336.113708 237.423828 336.119171 C 277.054169 336.122864 313.134186 321.352539 340.078979 297.072815 C 337.789581 289.250183 336.496887 281.022308 336.497681 272.460327 C 336.500946 237.171692 357.417633 206.672455 387.484009 192.735626 C 366.481293 165.06424 339.105164 144.045898 303.679504 145.121338 Z"/>
            </g>
            <g id="g3289">
                <g id="g3297">
                    <radialGradient id="radialGradient2" cx="128.197227" cy="150.403059" r="45.24934" fx="128.197227" fy="150.403059" gradientUnits="userSpaceOnUse">
                        <stop offset="1e-05" stop-color="#fbcc9d" stop-opacity="1"/>
                        <stop offset="0.350877" stop-color="#c9461b" stop-opacity="1"/>
                        <stop offset="1" stop-color="#9f3b2f" stop-opacity="1"/>
                    </radialGradient>
                    <path id="path3174" fill="url(#radialGradient2)" fill-rule="evenodd" stroke="none" d="M 131.721405 53.08728 C 97.176384 85.458313 83.278641 139.371735 120.71608 186.401154 C 133.200485 145.288727 184.787827 136.539673 184.787827 136.539673 C 184.787827 136.539673 139.866913 133.409241 131.721405 53.08728 Z"/>
                </g>
                <linearGradient id="linearGradient1" x1="135.73113" y1="138.957937" x2="119.41802" y2="46.980571" gradientUnits="userSpaceOnUse">
                    <stop offset="1e-05" stop-color="#ffffff" stop-opacity="0.227273"/>
                    <stop offset="1" stop-color="#ffffff" stop-opacity="0"/>
                </linearGradient>
                <path id="path3263" fill="url(#linearGradient1)" fill-rule="evenodd" stroke="none" d="M 132.317352 53.074402 C 113.135208 70.724152 100.268997 94.817413 98.654915 120.667938 C 110.188423 141.858246 126.993484 150.47467 139.370071 139.737457 C 145.747375 134.204834 149.915894 124.519714 151.611191 112.81546 C 142.924942 100.444916 135.268875 81.651794 132.317352 53.074402 Z"/>
            </g>
            <g id="g3306">
                <g id="g3308">
                    <radialGradient id="radialGradient3" cx="383.316456" cy="150.426712" r="45.249598" fx="383.316456" fy="150.426712" gradientUnits="userSpaceOnUse">
                        <stop offset="1e-05" stop-color="#fbcc9d" stop-opacity="1"/>
                        <stop offset="0.350877" stop-color="#c9461b" stop-opacity="1"/>
                        <stop offset="1" stop-color="#9f3b2f" stop-opacity="1"/>
                    </radialGradient>
                    <path id="path3310" fill="url(#radialGradient3)" fill-rule="evenodd" stroke="none" d="M 379.810333 53.110291 C 414.349335 85.487732 428.237091 139.403717 390.790924 186.426208 C 378.314148 145.311432 326.728424 136.552856 326.728424 136.552856 C 326.728424 136.552856 371.649902 133.430756 379.810333 53.110291 Z"/>
                </g>
                <linearGradient id="linearGradient2" x1="375.784676" y1="138.980194" x2="392.114841" y2="47.005854" gradientUnits="userSpaceOnUse">
                    <stop offset="1e-05" stop-color="#ffffff" stop-opacity="0.227273"/>
                    <stop offset="1" stop-color="#ffffff" stop-opacity="0"/>
                </linearGradient>
                <path id="path3312" fill="url(#linearGradient2)" fill-rule="evenodd" stroke="none" d="M 379.214355 53.09729 C 398.39325 70.75061 411.254974 94.846252 412.864319 120.697083 C 401.326843 141.885254 384.520172 150.498566 372.145599 139.759033 C 365.769287 134.22525 361.60257 124.539337 359.909485 112.834808 C 368.597992 100.465851 376.257568 81.674164 379.214355 53.09729 Z"/>
            </g>
            <g id="g6202">
                <path id="path6204" fill="#995900" stroke="none" d="M 148.816162 369.122681 C 142.535477 373.657837 126.625473 373.237671 122.577698 378.540649 C 118.599701 383.843628 122.716057 391.519897 122.644958 405.755188 C 122.644394 411.826141 121.597252 416.43158 120.899101 420.129883 C 119.921738 424.805115 119.293404 428.084747 121.246956 431.434387 C 124.805229 437.366089 130.527115 438.832062 163.253693 445.673615 C 180.768356 449.303833 197.30542 458.725769 208.400497 459.633942 C 219.495575 460.472351 221.868469 456.7742 228.637772 450.773651 C 235.33728 444.773132 237.500305 446.65741 237.292191 433.468811 C 237.084076 420.349976 228.640945 416.441498 219.082382 401.298157 C 209.523819 386.154846 207.988892 383.363464 201.639771 373.314453 C 195.290634 363.404968 182.731842 345.40033 175.544449 345.190338 C 169.822418 345.050232 166.612228 348.1203 163.053055 351.748566 C 159.493896 355.376862 155.096863 364.587524 148.816162 369.122681 Z"/>
                <g id="g6206">
                    <path id="path6208" fill="#9e5e00" stroke="none" d="M 148.917313 369.401794 C 142.716873 373.958313 127.134895 373.071045 122.689339 378.618195 C 118.662498 383.86496 122.907944 391.485046 122.781021 405.710632 C 122.756042 411.749573 121.663559 416.257111 120.902588 420.129883 C 119.897308 424.850647 119.275955 428.077972 121.239983 431.389832 C 124.909897 437.36322 130.63533 438.295105 163.354935 445.126038 C 180.859116 448.749481 196.830597 458.025024 208.267807 458.807251 C 219.108963 459.575836 221.414963 456.06665 228.100906 450.125214 C 234.785889 444.120819 236.848114 445.980865 236.688431 433.256531 C 236.616943 420.151276 228.640945 416.441498 219.082382 401.298157 C 209.523819 386.154846 207.988892 383.363464 201.639771 373.314453 C 195.290634 363.404968 182.731857 345.40033 175.544449 345.190369 C 169.822418 345.050232 166.612228 348.1203 163.05307 351.748566 C 159.493896 355.376892 155.149185 364.811401 148.917313 369.401794 Z"/>
                    <path id="path6210" fill="#a36400" stroke="none" d="M 149.018478 369.680969 C 142.89827 374.258789 127.64431 372.903412 122.80098 378.694763 C 118.725296 383.886292 123.099854 391.450195 122.917107 405.6651 C 122.867706 411.673035 121.729866 416.082672 120.906075 420.129883 C 119.872879 424.89621 119.258507 428.071167 121.233009 431.344269 C 125.014572 437.359344 130.743546 437.758209 163.456177 444.578461 C 180.94989 448.195099 196.356735 457.323303 208.135117 457.98053 C 218.721375 458.679321 220.961456 455.358154 227.56308 449.47583 C 234.235443 443.468506 236.195938 445.304321 236.085617 433.043243 C 236.148834 419.952545 228.640945 416.441498 219.082382 401.298157 C 209.523819 386.154846 207.988892 383.363464 201.639771 373.314453 C 195.290634 363.404968 182.731857 345.40033 175.544449 345.190338 C 169.822433 345.050232 166.612228 348.1203 163.05307 351.748566 C 159.493896 355.376892 155.201492 365.034302 149.018478 369.680969 Z"/>
                    <path id="path6212" fill="#a86a00" stroke="none" d="M 149.119629 369.960083 C 143.079666 374.558289 128.153732 372.735779 122.912628 378.771362 C 118.788101 383.906616 123.291756 391.415283 123.053185 405.619568 C 122.979362 411.596466 121.796173 415.908234 120.909561 420.129883 C 119.848457 424.941742 119.241074 428.064392 121.226028 431.298737 C 125.119247 437.356445 130.851746 437.220306 163.557404 444.030884 C 181.040634 447.639771 195.881912 456.622498 208.003372 457.153778 C 218.333786 457.782776 220.50795 454.649628 227.026215 448.827393 C 233.684052 442.816193 235.543747 444.626801 235.481827 432.830933 C 235.681717 419.753815 228.640945 416.441498 219.082382 401.298157 C 209.523819 386.154846 207.988892 383.363464 201.639771 373.314453 C 195.290634 363.404968 182.731842 345.40033 175.544449 345.190338 C 169.822418 345.050232 166.612228 348.1203 163.05307 351.748566 C 159.493896 355.376862 155.253799 365.258179 149.119629 369.960083 Z"/>
                    <path id="path6214" fill="#ad7000" stroke="none" d="M 149.220779 370.239197 C 143.261078 374.858734 128.663147 372.568207 123.024261 378.8479 C 118.850899 383.927979 123.48365 391.380402 123.189262 405.574036 C 123.091019 411.519897 121.862488 415.733795 120.913048 420.129883 C 119.824028 424.987305 119.223625 428.057587 121.219055 431.253174 C 125.223907 437.3526 130.959961 436.683411 163.658615 443.483276 C 181.131409 447.085419 195.408051 455.920776 207.870667 456.327057 C 217.947174 456.886261 220.054428 453.941101 226.489349 448.177979 C 233.132645 442.163879 234.890564 443.950256 234.878052 432.617645 C 235.2146 419.555084 228.640945 416.441498 219.082382 401.298157 C 209.523819 386.154846 207.988892 383.363464 201.639771 373.314453 C 195.290634 363.404968 182.731842 345.40033 175.544449 345.190338 C 169.822418 345.050232 166.612228 348.1203 163.05307 351.748566 C 159.493896 355.376892 155.306122 365.48111 149.220779 370.239197 Z"/>
                    <path id="path6216" fill="#b27500" stroke="none" d="M 149.321945 370.518372 C 143.442474 375.158203 129.172562 372.400574 123.13591 378.9245 C 118.913704 383.948303 123.67556 391.345551 123.325333 405.528503 C 123.202667 411.442383 121.928787 415.559326 120.916542 420.129883 C 119.799599 425.031891 119.206184 428.049835 121.21209 431.207611 C 125.32859 437.348724 131.068161 436.145538 163.759857 442.934753 C 181.222183 446.53009 194.933228 455.219055 207.737976 455.499359 C 217.559586 455.98877 219.600937 453.232574 225.951508 447.528595 C 232.581238 441.51062 234.238373 443.272736 234.274277 432.404388 C 234.746521 419.355408 228.640945 416.441498 219.082382 401.298157 C 209.523819 386.154846 207.988892 383.363464 201.639771 373.314453 C 195.290634 363.404968 182.731842 345.40033 175.544449 345.190338 C 169.822433 345.050232 166.612228 348.1203 163.05307 351.748566 C 159.493912 355.376862 155.358429 365.704041 149.321945 370.518372 Z"/>
                    <path id="path6218" fill="#b77b00" stroke="none" d="M 149.423096 370.797485 C 143.623886 375.458679 129.681976 372.233887 123.247551 379.002045 C 118.976501 383.969666 123.867455 391.310669 123.461411 405.483887 C 123.314331 411.365814 121.995094 415.384888 120.920036 420.129883 C 119.775169 425.077454 119.188736 428.04306 121.205116 431.163025 C 125.433258 437.345825 131.176392 435.608612 163.861099 442.387146 C 181.312958 445.975739 194.458862 454.518311 207.60527 454.672638 C 217.172958 455.092224 219.1474 452.525055 225.414658 446.880157 C 232.029831 440.858307 233.586166 442.596191 233.670471 432.192078 C 234.279373 419.156677 228.640945 416.441498 219.082382 401.298157 C 209.523819 386.154846 207.988892 383.363464 201.639771 373.314453 C 195.290634 363.404968 182.731842 345.40033 175.544449 345.190369 C 169.822418 345.050232 166.612228 348.1203 163.05307 351.748566 C 159.493896 355.376862 155.410751 365.927917 149.423096 370.797485 Z"/>
                    <path id="path6220" fill="#bc8100" stroke="none" d="M 149.524261 371.076599 C 143.805283 375.759155 130.191376 372.066284 123.359184 379.078613 C 119.039299 383.990967 124.059357 391.275787 123.597488 405.438354 C 123.425987 411.289276 122.061409 415.210449 120.923523 420.129883 C 119.75074 425.122986 119.171295 428.036285 121.198135 431.117493 C 125.537926 437.341949 131.284592 435.071716 163.962326 441.8396 C 181.403717 445.421326 193.984421 453.816589 207.47258 453.845917 C 216.78537 454.195709 218.693909 451.816528 224.876816 446.230774 C 231.479416 440.205994 232.934006 441.919647 233.067703 431.97879 C 233.811295 418.957947 228.640961 416.441498 219.082382 401.298157 C 209.523819 386.154846 207.988892 383.363464 201.639771 373.314453 C 195.290634 363.404968 182.731857 345.40033 175.544449 345.190369 C 169.822433 345.050232 166.612228 348.1203 163.05307 351.748566 C 159.493912 355.376862 155.463058 366.150818 149.524261 371.076599 Z"/>
                    <path id="path6222" fill="#c18700" stroke="none" d="M 149.625412 371.355713 C 143.986694 376.058624 130.70079 371.898682 123.470833 379.155212 C 119.102104 384.011353 124.251259 391.240936 123.733574 405.392822 C 123.537643 411.212708 122.127716 415.036011 120.92701 420.129883 C 119.726318 425.168518 119.153847 428.02948 121.191162 431.07193 C 125.642601 437.33905 131.392807 434.533813 164.063553 441.291992 C 181.494492 444.866028 193.509979 453.115814 207.340836 453.019196 C 216.397781 453.299164 218.240402 451.108032 224.339951 445.582336 C 230.928009 439.553711 232.281799 441.242126 232.463898 431.766479 C 233.344147 418.759247 228.640945 416.441498 219.082382 401.298157 C 209.523819 386.154846 207.988892 383.363464 201.639771 373.314453 C 195.290634 363.404968 182.731857 345.40033 175.544449 345.190338 C 169.822433 345.050232 166.612228 348.1203 163.05307 351.748566 C 159.493912 355.376862 155.515381 366.374695 149.625412 371.355713 Z"/>
                    <path id="path6224" fill="#c68c00" stroke="none" d="M 149.726563 371.634888 C 144.168076 376.359131 131.21022 371.731018 123.582474 379.23175 C 119.164902 384.032654 124.443161 391.206055 123.869637 405.34729 C 123.6493 411.136169 122.194016 414.861542 120.930496 420.129883 C 119.701889 425.214081 119.136398 428.022705 121.184189 431.026398 C 125.747269 437.335205 131.501007 433.996887 164.164795 440.744446 C 181.585251 444.311646 193.035538 452.414093 207.208145 452.192474 C 216.011169 452.402649 217.78688 450.399506 223.803085 444.932922 C 230.376602 438.901367 231.628632 440.565582 231.860138 431.553223 C 232.877045 418.560486 228.640961 416.441498 219.082382 401.298157 C 209.523819 386.154846 207.988892 383.363464 201.639771 373.314453 C 195.290634 363.404968 182.731857 345.40033 175.544449 345.190338 C 169.822433 345.050232 166.612228 348.1203 163.05307 351.748566 C 159.493912 355.376892 155.567688 366.597595 149.726563 371.634888 Z"/>
                    <path id="path6226" fill="#cc9200" stroke="none" d="M 149.827728 371.914001 C 144.349487 376.6586 131.719635 371.563416 123.694115 379.30835 C 119.227707 384.05304 124.635056 391.171173 124.005722 405.301758 C 123.760956 411.058655 122.26033 414.687103 120.93399 420.129883 C 119.67746 425.258636 119.118958 428.014954 121.177216 430.980835 C 125.851944 437.331329 131.609222 433.459015 164.266022 440.195892 C 181.67601 443.756348 192.561096 451.712372 207.075439 451.364807 C 215.623566 451.505157 217.333374 449.69101 223.265259 444.283569 C 229.825195 438.248108 230.97644 439.888062 231.256348 431.339935 C 232.408951 418.360809 228.640945 416.441498 219.082382 401.298157 C 209.523819 386.154846 207.988892 383.363464 201.639771 373.314453 C 195.290634 363.404968 182.731842 345.40033 175.544449 345.190338 C 169.822418 345.050232 166.612228 348.1203 163.05307 351.748566 C 159.493896 355.376892 155.62001 366.820557 149.827728 371.914001 Z"/>
                    <path id="path6228" fill="#d19800" stroke="none" d="M 149.928879 372.193146 C 144.530884 376.959045 132.22905 371.396759 123.805763 379.385925 C 119.290504 384.074341 124.826965 391.136322 124.141792 405.257202 C 123.872612 410.982086 122.326645 414.512665 120.937477 420.129883 C 119.65303 425.30423 119.101517 428.008179 121.170242 430.936218 C 125.956619 437.3284 131.717438 432.922089 164.367264 439.648315 C 181.766785 443.201965 192.086639 451.011597 206.942734 450.538086 C 215.236954 450.608612 216.879868 448.983459 222.728378 443.635132 C 229.273788 437.595825 230.324249 439.211517 230.652573 431.127625 C 231.941818 418.162079 228.640945 416.441498 219.082382 401.298157 C 209.523819 386.154846 207.988892 383.363464 201.639771 373.314453 C 195.290634 363.404968 182.731857 345.40033 175.544449 345.190338 C 169.822418 345.050232 166.612228 348.1203 163.05307 351.748566 C 159.493896 355.376862 155.672318 367.044434 149.928879 372.193146 Z"/>
                    <path id="path6230" fill="#d69e00" stroke="none" d="M 150.030029 372.47229 C 144.712296 377.259521 132.738464 371.229126 123.917404 379.462463 C 119.353302 384.095703 125.01886 391.10144 124.277878 405.211609 C 123.984268 410.905518 122.392944 414.338226 120.940971 420.129883 C 119.628601 425.349792 119.084068 428.001373 121.163269 430.890686 C 126.061287 437.324554 131.825638 432.385193 164.468506 439.100739 C 181.857544 442.647583 191.612198 450.309845 206.810028 449.711365 C 214.849365 449.712097 216.426346 448.274963 222.190552 442.985718 C 228.723389 436.943512 229.672043 438.534973 230.049759 430.914368 C 231.473724 417.963348 228.640945 416.441498 219.082382 401.298157 C 209.523819 386.154846 207.988892 383.363464 201.639771 373.314453 C 195.290634 363.404968 182.731842 345.40033 175.544449 345.190338 C 169.822418 345.050232 166.612228 348.1203 163.053055 351.748566 C 159.493896 355.376862 155.72464 367.267334 150.030029 372.47229 Z"/>
                    <path id="path6232" fill="#dba300" stroke="none" d="M 150.131195 372.751404 C 144.893692 377.559021 133.247879 371.061523 124.029045 379.539063 C 119.4161 384.116028 125.210762 391.066559 124.413948 405.166077 C 124.095924 410.828979 122.459251 414.163757 120.944458 420.129883 C 119.604172 425.395325 119.06662 427.994598 121.156296 430.845123 C 126.165955 437.321655 131.933853 431.847321 164.569733 438.553162 C 181.948318 442.092285 191.137741 449.6091 206.678314 448.884644 C 214.461792 448.815582 215.972855 447.566467 221.653702 442.33728 C 228.171982 436.291199 229.019852 437.857452 229.445984 430.702057 C 231.006592 417.764648 228.640945 416.441498 219.082382 401.298157 C 209.523819 386.154846 207.988892 383.363464 201.639771 373.314453 C 195.290634 363.404968 182.731842 345.40033 175.544449 345.190338 C 169.822418 345.050232 166.612228 348.1203 163.053055 351.748566 C 159.493896 355.376862 155.776947 367.491241 150.131195 372.751404 Z"/>
                    <path id="path6234" fill="#e0a900" stroke="none" d="M 150.232346 373.030518 C 145.075104 377.859467 133.757294 370.893921 124.140686 379.615631 C 119.478905 384.13739 125.402664 391.031708 124.550026 405.120544 C 124.207581 410.752411 122.525566 413.989319 120.947945 420.129883 C 119.579742 425.440857 119.049179 427.987793 121.149315 430.799591 C 126.27063 437.31781 132.042068 431.310394 164.670959 438.005585 C 182.039078 441.537903 190.663315 448.907379 206.545609 448.057922 C 214.07515 447.919037 215.519318 446.85791 221.116837 441.687866 C 227.620575 435.638885 228.366684 437.180908 228.842209 430.48877 C 230.539474 417.565887 228.640945 416.441498 219.082382 401.298157 C 209.523819 386.154846 207.988892 383.363464 201.639771 373.314453 C 195.290634 363.404968 182.731842 345.40033 175.544449 345.190338 C 169.822418 345.050232 166.612228 348.1203 163.05307 351.748566 C 159.493896 355.376892 155.829254 367.714142 150.232346 373.030518 Z"/>
                    <path id="path6236" fill="#e5af00" stroke="none" d="M 150.333511 373.309692 C 145.2565 378.158997 134.266708 370.726318 124.252335 379.6922 C 119.54171 384.157745 125.594559 390.996826 124.686104 405.075012 C 124.319237 410.674927 122.591873 413.81488 120.951431 420.129883 C 119.555313 425.485443 119.031731 427.980042 121.142349 430.754028 C 126.375298 437.313934 132.150269 430.772522 164.772186 437.457031 C 182.129852 440.982605 190.188873 448.205658 206.412903 447.230225 C 213.687561 447.021545 215.065826 446.149414 220.578979 441.038483 C 227.069168 434.985596 227.714508 436.503387 228.238434 430.275513 C 230.071365 417.366211 228.640945 416.441498 219.082382 401.298157 C 209.523819 386.154846 207.988892 383.363464 201.639771 373.314453 C 195.290634 363.404968 182.731857 345.40033 175.544449 345.190338 C 169.822418 345.050232 166.612228 348.1203 163.05307 351.748566 C 159.493896 355.376862 155.881577 367.937073 150.333511 373.309692 Z"/>
                    <path id="path6238" fill="#eab500" stroke="none" d="M 150.434662 373.588806 C 145.437912 378.459442 134.776123 370.559631 124.363976 379.769775 C 119.6045 384.179077 125.786461 390.961975 124.822182 405.030457 C 124.430893 410.598328 122.658173 413.640442 120.954926 420.129883 C 119.530891 425.530975 119.01429 427.973267 121.135376 430.709473 C 126.479973 437.311035 132.258484 430.235565 164.873428 436.909485 C 182.220612 440.428223 189.714417 447.504883 206.280212 446.403503 C 213.299988 446.125031 214.61232 445.441864 220.042114 440.390076 C 226.517776 434.333313 227.062302 435.826843 227.634659 430.063202 C 229.604263 417.167511 228.640961 416.441498 219.082382 401.298157 C 209.523819 386.154846 207.988892 383.363464 201.639771 373.314453 C 195.290634 363.404968 182.731857 345.40033 175.544449 345.190338 C 169.822433 345.050232 166.612228 348.1203 163.05307 351.748566 C 159.493912 355.376892 155.933899 368.16095 150.434662 373.588806 Z"/>
                    <path id="path6240" fill="#efba00" stroke="none" d="M 150.535812 373.86792 C 145.619293 378.759888 135.285538 370.392029 124.475616 379.846313 C 119.667305 384.200378 125.978363 390.927063 124.95826 404.984924 C 124.542549 410.52179 122.724487 413.465973 120.958412 420.129883 C 119.506462 425.576538 118.996841 427.966492 121.128395 430.66391 C 126.584648 437.307129 132.366699 429.698669 164.974655 436.361908 C 182.311386 439.87384 189.239975 446.803162 206.147491 445.576782 C 212.913361 445.228516 214.158798 444.733368 219.504288 439.740662 C 225.967331 433.681 226.41011 435.150299 227.031845 429.849915 C 229.136154 416.96875 228.640945 416.441498 219.082382 401.298157 C 209.523819 386.154846 207.988892 383.363464 201.639771 373.314453 C 195.290634 363.404968 182.731842 345.40033 175.544449 345.190338 C 169.822418 345.050232 166.612228 348.1203 163.053055 351.748566 C 159.493896 355.376862 155.986221 368.38385 150.535812 373.86792 Z"/>
                    <path id="path6242" fill="#f4c000" stroke="none" d="M 150.636978 374.147064 C 145.800705 379.059387 135.794952 370.224396 124.58725 379.922913 C 119.73011 384.220764 126.170265 390.892181 125.094337 404.939392 C 124.654205 410.445251 122.790794 413.291534 120.961899 420.129883 C 119.48204 425.62207 118.979401 427.959717 121.121422 430.618378 C 126.689316 437.30426 132.474899 429.160797 165.075897 435.814331 C 182.402145 439.318542 188.765533 446.102386 206.015762 444.750061 C 212.525787 444.33197 213.705292 444.024841 218.967422 439.092224 C 225.415939 433.028687 225.757919 434.472778 226.42807 429.637634 C 228.669037 416.77005 228.640945 416.441498 219.082382 401.298157 C 209.523819 386.154846 207.988892 383.363464 201.639771 373.314453 C 195.290634 363.404968 182.731842 345.40033 175.544449 345.190338 C 169.822418 345.050232 166.612228 348.1203 163.053055 351.748566 C 159.493896 355.376862 156.038528 368.607727 150.636978 374.147064 Z"/>
                    <path id="path6244" fill="#f9c600" stroke="none" d="M 150.738129 374.426208 C 145.982117 379.359863 136.304367 370.056763 124.698898 379.999481 C 119.792915 384.242065 126.36216 390.857361 125.230415 404.89386 C 124.765862 410.368683 122.857094 413.117096 120.965393 420.129883 C 119.457611 425.667664 118.961952 427.952942 121.114449 430.572784 C 126.793991 437.300385 132.583115 428.623871 165.177124 435.266724 C 182.49292 438.76416 188.291092 445.400665 205.883072 443.923309 C 212.13916 443.435425 213.251785 443.316345 218.430557 438.442841 C 224.864517 432.376373 225.104752 433.796234 225.824295 429.424347 C 228.201904 416.571289 228.640945 416.441498 219.082382 401.298157 C 209.523819 386.154846 207.988892 383.363464 201.639771 373.314453 C 195.290634 363.404968 182.731842 345.40033 175.544449 345.190338 C 169.822433 345.050232 166.612228 348.1203 163.05307 351.748566 C 159.493912 355.376892 156.090851 368.830658 150.738129 374.426208 Z"/>
                </g>
                <path id="path6246" fill="#ffcc00" stroke="none" d="M 150.839294 374.705322 C 146.163513 379.659363 136.813797 369.88916 124.810539 380.07605 C 119.855721 384.262451 126.55407 390.822449 125.366486 404.848267 C 124.877518 410.291138 122.923409 412.942657 120.96888 420.129883 C 119.433182 425.712219 118.944511 427.945129 121.107483 430.527222 C 126.898659 437.296509 132.691315 428.085999 165.278366 434.718201 C 182.583679 438.208832 187.816635 444.698914 205.750366 443.095642 C 211.751572 442.537964 212.798279 442.607849 217.892715 437.793427 C 224.31311 431.723083 224.45256 433.118713 225.220505 429.21106 C 227.73381 416.371613 228.640945 416.441498 219.082382 401.298157 C 209.523819 386.154846 207.988892 383.363464 201.639771 373.314453 C 195.290634 363.404968 182.731842 345.40033 175.544449 345.190338 C 169.822418 345.050232 166.612228 348.1203 163.05307 351.748566 C 159.493896 355.376862 156.143158 369.053589 150.839294 374.705322 Z"/>
            </g>
            <g id="g6248">
                <path id="path6250" fill="#ffcc00" stroke="none" d="M 153.861359 380.158203 C 149.714523 384.555939 136.145096 378.837524 129.736633 383.674072 C 125.150261 387.066772 132.060394 391.339539 131.116913 403.9039 C 130.739548 408.67804 127.409752 409.557709 128.79129 416.154053 C 129.858963 421.11734 130.989807 420.991455 132.874176 423.253693 C 138.025085 429.285339 136.832047 424.887115 166.169983 430.795044 C 181.687119 433.938538 186.461304 439.781219 202.606781 438.337677 C 208.010025 437.836121 209.01503 437.898254 213.538605 433.564484 C 219.31929 428.161865 216.366089 429.292633 216.994446 425.837555 C 219.19458 414.340393 217.435715 412.330139 208.829681 398.696899 C 200.22464 385.062683 200.978729 384.309692 195.325394 375.32489 C 189.672012 366.466064 181.883362 350.319824 175.412659 350.193207 C 170.323898 350.066772 167.37085 352.830566 164.166733 356.097351 C 160.962234 359.364197 158.573395 375.133453 153.861359 380.158203 Z"/>
                <g id="g6252">
                    <path id="path6254" fill="#ffcc02" stroke="none" d="M 154.146576 380.246429 C 149.822464 384.803101 136.115311 379.085632 129.858444 383.835938 C 125.302216 387.240234 132.356552 391.637085 131.415894 403.877747 C 131.026917 408.623779 127.797234 409.573242 129.032242 416.122131 C 129.988358 421.058228 131.317215 420.908142 133.231903 423.101563 C 138.742188 429.044128 137.761002 424.871704 166.298798 430.608978 C 181.726288 433.722443 186.471985 439.541809 202.518616 438.106995 C 207.888885 437.610291 208.796997 437.658844 213.330231 433.408447 C 219.014969 428.16861 216.101501 429.253815 216.637802 425.600098 C 218.642151 414.175598 217.068405 412.049072 208.704666 398.801575 C 200.148056 385.248779 200.813965 384.554871 195.194519 375.624359 C 189.574982 366.818848 181.918503 350.613464 175.486374 350.487854 C 170.427948 350.362366 167.492554 353.109711 164.307526 356.357117 C 161.122116 359.604553 158.836014 375.25946 154.146576 380.246429 Z"/>
                    <path id="path6256" fill="#ffcc05" stroke="none" d="M 154.431702 380.334656 C 149.930313 385.050262 136.085541 379.33374 129.980347 383.996857 C 125.45417 387.414734 132.652618 391.935669 131.71489 403.85257 C 131.314377 408.569519 128.184708 409.58783 129.273178 416.089203 C 130.117752 420.999115 131.644608 420.824829 133.589554 422.949432 C 139.45932 428.803802 138.689972 424.857239 166.427719 430.423859 C 181.765366 433.506317 186.482666 439.302429 202.43045 437.875336 C 207.768723 437.385437 208.579926 437.419434 213.120911 433.253357 C 218.711594 428.175354 215.837906 429.215057 216.281158 425.363586 C 218.089737 414.009796 216.701111 411.768951 208.57962 398.90625 C 200.071487 385.434814 200.650146 384.801025 195.06366 375.923828 C 189.478012 367.170654 181.953751 350.907135 175.560196 350.782471 C 170.532013 350.656982 167.614258 353.387878 164.448334 356.615906 C 161.282013 359.843933 159.098663 375.385498 154.431702 380.334656 Z"/>
                    <path id="path6258" fill="#ffcc07" stroke="none" d="M 154.716919 380.422882 C 150.038254 385.297424 136.055679 379.581848 130.102158 384.157745 C 125.606125 387.589203 132.948761 392.233185 132.013885 403.826416 C 131.601837 408.515289 128.572189 409.603363 129.514114 416.05722 C 130.247238 420.940033 131.972092 420.741486 133.947296 422.797302 C 140.176529 428.563538 139.618927 424.841827 166.556519 430.237793 C 181.80452 433.290161 186.493362 439.062073 202.34227 437.644653 C 207.648575 437.159607 208.361893 437.180023 212.912552 433.09729 C 218.407288 428.182129 215.573303 429.176239 215.92453 425.127045 C 217.537323 413.844025 216.33284 411.487854 208.453613 399.010895 C 199.993942 385.620911 200.485352 385.04718 194.933762 376.223267 C 189.381073 367.523438 181.989014 351.200806 175.633942 351.076172 C 170.636185 350.952637 167.735962 353.666992 164.589035 356.875671 C 161.441818 360.083344 159.361389 375.511536 154.716919 380.422882 Z"/>
                    <path id="path6260" fill="#ffcd0a" stroke="none" d="M 155.002151 380.511108 C 150.146194 385.544556 136.025894 379.829956 130.224075 384.318665 C 125.758072 387.762695 133.244919 392.531738 132.312881 403.800293 C 131.889206 408.461029 128.959763 409.618927 129.754959 416.024292 C 130.376617 420.88092 132.2995 420.658173 134.305023 422.645172 C 140.893646 428.322266 140.547882 424.826385 166.685455 430.051727 C 181.843719 433.075043 186.504044 438.822693 202.254105 437.414001 C 207.527451 436.934723 208.143829 436.940613 212.704193 432.9422 C 218.102951 428.188904 215.308731 429.137451 215.567886 424.890564 C 216.98587 413.678253 215.965546 411.206726 208.328583 399.116516 C 199.917358 385.806976 200.321548 385.293335 194.802704 376.522736 C 189.284027 367.875214 182.02417 351.494446 175.707764 351.370789 C 170.74025 351.247253 167.857651 353.94516 164.729828 357.13446 C 161.6017 360.322754 159.624023 375.638489 155.002151 380.511108 Z"/>
                    <path id="path6262" fill="#ffcd0c" stroke="none" d="M 155.287369 380.598358 C 150.254135 385.791718 135.996124 380.078064 130.345886 384.480499 C 125.90992 387.937164 133.541077 392.829315 132.611877 403.775085 C 132.176666 408.406799 129.347229 409.633484 129.995895 415.99234 C 130.506012 420.820831 132.626892 420.57486 134.662766 422.493042 C 141.610764 428.08197 141.476837 424.810974 166.81427 429.865662 C 181.882889 432.858917 186.514832 438.583282 202.165924 437.182373 C 207.407288 436.709869 207.925797 436.701202 212.494873 432.786163 C 217.79863 428.195679 215.044144 429.098663 215.211258 424.653076 C 216.433456 413.513428 215.598267 410.926605 208.203552 399.221161 C 199.840759 385.993073 200.156754 385.538513 194.672012 376.822205 C 189.187073 368.227966 182.059418 351.788147 175.781586 351.66449 C 170.844406 351.541901 167.979355 354.224304 164.870605 357.39325 C 161.761597 360.56311 159.886765 375.764526 155.287369 380.598358 Z"/>
                    <path id="path6264" fill="#ffcd0f" stroke="none" d="M 155.572586 380.686584 C 150.362076 386.038879 135.966339 380.326172 130.467697 384.641418 C 126.061874 388.111633 133.837128 393.127838 132.910873 403.748993 C 132.464035 408.352539 129.734711 409.649048 130.236847 415.959412 C 130.635498 420.761719 132.954391 420.491547 135.020401 422.340912 C 142.327896 427.841675 142.405807 424.795563 166.943085 429.679565 C 181.922058 432.642761 186.525513 438.343933 202.077744 436.95166 C 207.28714 436.484039 207.708725 436.461792 212.286499 432.631073 C 217.495285 428.202393 214.779572 429.059875 214.854614 424.416534 C 215.881042 413.347656 215.230988 410.645538 208.077545 399.325836 C 199.763214 386.179138 199.992966 385.784668 194.541245 377.121674 C 189.090118 368.579803 182.094681 352.081787 175.855316 351.959106 C 170.948456 351.837494 168.101074 354.502472 165.011414 357.653015 C 161.921478 360.802551 160.149384 375.890533 155.572586 380.686584 Z"/>
                    <path id="path6266" fill="#ffcd11" stroke="none" d="M 155.857712 380.774811 C 150.470032 386.286011 135.936554 380.574249 130.589615 384.802307 C 126.213829 388.285095 134.13327 393.425415 133.209854 403.722839 C 132.751511 408.298279 130.122192 409.664612 130.477783 415.927429 C 130.764893 420.702606 133.281784 420.408234 135.378143 422.188812 C 143.04509 427.600403 143.334854 424.781097 167.072021 429.49353 C 181.961136 432.427643 186.536194 438.104553 201.988602 436.721008 C 207.166 436.259186 207.490677 436.222412 212.077179 432.475983 C 217.190964 428.209167 214.515961 429.021088 214.497986 424.180054 C 215.328629 413.181885 214.862701 410.364441 207.952515 399.430481 C 199.68663 386.36615 199.828156 386.030884 194.410583 377.421112 C 188.993073 368.93158 182.129822 352.374512 175.929138 352.253723 C 171.052536 352.132141 168.222763 354.781616 165.152222 357.911804 C 162.081375 361.041931 160.412018 376.017517 155.857712 380.774811 Z"/>
                    <path id="path6268" fill="#ffce14" stroke="none" d="M 156.142929 380.863037 C 150.577972 386.533142 135.906784 380.822388 130.711426 384.963196 C 126.365776 388.459595 134.429428 393.723938 133.508942 403.697662 C 133.038956 408.244049 130.509659 409.679138 130.718719 415.894501 C 130.894287 420.643524 133.609177 420.32489 135.73587 422.036652 C 143.762222 427.360138 144.263809 424.765686 167.200836 429.307434 C 182.00032 432.211517 186.546875 437.864166 201.900436 436.48938 C 207.045837 436.033356 207.272644 435.982971 211.86882 432.319916 C 216.886642 428.215912 214.251373 428.9823 214.141357 423.943512 C 214.776199 413.017059 214.495422 410.08429 207.827484 399.535156 C 199.610062 386.552246 199.663391 386.277008 194.279907 377.720612 C 188.896118 369.284363 182.16507 352.668152 176.002853 352.547424 C 171.156693 352.427734 168.344467 355.059814 165.293015 358.170563 C 162.241272 361.281311 160.674774 376.143524 156.142929 380.863037 Z"/>
                    <path id="path6270" fill="#ffce16" stroke="none" d="M 156.428162 380.951233 C 150.685822 386.780304 135.876999 381.070496 130.833313 385.125061 C 126.517731 388.634064 134.725586 394.021484 133.807953 403.671509 C 133.32634 408.189789 130.897141 409.694702 130.959656 415.862549 C 131.023682 420.584412 133.936569 420.241577 136.093613 421.884552 C 144.47934 427.119873 145.192764 424.750275 167.329742 429.121399 C 182.03949 431.995392 186.557556 437.624817 201.812256 436.258698 C 206.925674 435.808502 207.055557 435.743591 211.6595 432.164825 C 216.582306 428.222656 213.986786 428.943512 213.784698 423.706024 C 214.223785 412.851288 214.128128 409.803192 207.701477 399.639801 C 199.533478 386.738312 199.499557 386.522186 194.149231 378.020081 C 188.799179 369.636169 182.200333 352.961792 176.076691 352.842041 C 171.260757 352.722412 168.466187 355.338928 165.433807 358.430298 C 162.401169 361.520752 160.937393 376.269531 156.428162 380.951233 Z"/>
                    <path id="path6272" fill="#ffce19" stroke="none" d="M 156.713379 381.038513 C 150.793762 387.027466 135.847229 381.318604 130.955139 385.28595 C 126.669678 388.807556 135.021652 394.320038 134.106949 403.646362 C 133.613785 408.135559 131.284622 409.710266 131.200516 415.830597 C 131.153168 420.525299 134.264069 420.158264 136.451248 421.732422 C 145.196442 426.878571 146.121735 424.734833 167.458572 428.935303 C 182.078659 431.780243 186.568253 437.385406 201.724091 436.028015 C 206.804565 435.583649 206.837509 435.504181 211.451126 432.008789 C 216.277985 428.229401 213.722214 428.904724 213.428085 423.469543 C 213.671371 412.685486 213.760834 409.522125 207.576462 399.745453 C 199.455917 386.924408 199.334793 386.768341 194.018555 378.319519 C 188.702133 369.988922 182.235474 353.255493 176.150406 353.135681 C 171.364807 353.017029 168.587875 355.617065 165.574615 358.689087 C 162.56105 361.761108 161.200027 376.396545 156.713379 381.038513 Z"/>
                    <path id="path6274" fill="#ffce1c" stroke="none" d="M 156.998596 381.126709 C 150.901703 387.274628 135.817459 381.566711 131.077042 385.446838 C 126.821541 388.981995 135.317795 394.617615 134.40593 403.620239 C 133.901154 408.081299 131.672195 409.724792 131.441452 415.797668 C 131.282562 420.466187 134.591446 420.074951 136.80899 421.579315 C 145.913666 426.638306 147.05069 424.720398 167.587494 428.749237 C 182.117828 431.564087 186.578918 437.145996 201.63591 435.796387 C 206.684402 435.357819 206.619461 435.264771 211.242783 431.853699 C 215.97464 428.236206 213.458603 428.865906 213.072418 423.233002 C 213.118942 412.520691 213.392563 409.242004 207.451401 399.850098 C 199.379318 387.110474 199.170959 387.014496 193.887894 378.619019 C 188.605179 370.340759 182.270737 353.549164 176.224243 353.430359 C 171.468964 353.312622 168.709564 355.895264 165.715408 358.947876 C 162.720947 362.000519 161.462769 376.522583 156.998596 381.126709 Z"/>
                    <path id="path6276" fill="#ffcf1e" stroke="none" d="M 157.283722 381.214905 C 151.009644 387.522705 135.787674 381.814789 131.198853 385.607727 C 126.973488 389.156494 135.613953 394.916138 134.704941 403.594055 C 134.188614 408.027039 132.059662 409.740356 131.682388 415.765686 C 131.411942 420.407074 134.918854 419.991638 137.166733 421.427185 C 146.630783 426.39801 147.979645 424.704987 167.716309 428.563171 C 182.156906 431.347961 186.589706 436.906647 201.547745 435.565704 C 206.56424 435.132965 206.401443 435.02533 211.033447 431.697632 C 215.670319 428.24292 213.194016 428.827118 212.715775 422.996521 C 212.566528 412.354889 213.025284 408.960876 207.325409 399.954773 C 199.30275 387.29657 199.00618 387.260651 193.757217 378.918457 C 188.508224 370.693542 182.306 353.842804 176.297958 353.724976 C 171.573044 353.607269 168.831284 356.174377 165.856216 359.207642 C 162.880829 362.239929 161.725403 376.64859 157.283722 381.214905 Z"/>
                    <path id="path6278" fill="#ffcf21" stroke="none" d="M 157.568939 381.303162 C 151.117584 387.769897 135.757813 382.061951 131.320755 385.769592 C 127.125443 389.329956 135.91011 395.214691 135.003922 403.568909 C 134.476089 407.972809 132.447144 409.75592 131.923325 415.732788 C 131.541428 420.346985 135.246353 419.908325 137.524475 421.275024 C 147.3479 426.156738 148.908615 424.689545 167.845245 428.377106 C 182.196091 431.131866 186.600388 436.66626 201.459564 435.335022 C 206.443115 434.908112 206.184372 434.78595 210.825089 431.542542 C 215.365982 428.249695 212.929443 428.78833 212.359146 422.759033 C 212.01413 412.189148 212.65799 408.679779 207.200363 400.059448 C 199.225204 387.482605 198.842377 387.505829 193.626541 379.217896 C 188.411194 371.045288 182.341141 354.136475 176.37178 354.018677 C 171.677094 353.902893 168.952988 356.452515 165.996994 359.466431 C 163.040634 362.479309 161.988037 376.774597 157.568939 381.303162 Z"/>
                    <path id="path6280" fill="#ffcf23" stroke="none" d="M 157.854156 381.391357 C 151.225525 388.017029 135.728027 382.310059 131.442566 385.930481 C 127.27739 389.504425 136.206161 395.512207 135.302917 403.542755 C 134.763458 407.918579 132.834625 409.770447 132.164276 415.700806 C 131.670822 420.287903 135.573746 419.824982 137.882111 421.122925 C 148.065018 425.916473 149.83757 424.674133 167.97406 428.19104 C 182.23526 430.916687 186.611069 436.42691 201.371384 435.103394 C 206.322952 434.682281 205.966324 434.546539 210.615753 431.387451 C 215.061661 428.25647 212.664841 428.749542 212.002502 422.522522 C 211.4617 412.023376 212.290695 408.399658 207.075333 400.164093 C 199.148621 387.668701 198.677582 387.752014 193.495865 379.517395 C 188.314224 371.398102 182.376389 354.429199 176.445511 354.313293 C 171.781265 354.19751 169.074677 356.731659 166.137711 359.72522 C 163.200516 362.719666 162.250778 376.901581 157.854156 381.391357 Z"/>
                    <path id="path6282" fill="#ffcf26" stroke="none" d="M 158.139389 381.479614 C 151.333481 388.264191 135.698242 382.558136 131.564468 386.0914 C 127.429337 389.677948 136.502319 395.81076 135.601913 403.516602 C 135.050903 407.864319 133.222092 409.786041 132.405212 415.667908 C 131.800217 420.22879 135.901138 419.741638 138.239853 420.970795 C 148.782242 425.675171 150.766525 424.658722 168.102966 428.004944 C 182.274445 430.700562 186.62175 436.1875 201.283218 434.872742 C 206.202805 434.457397 205.748276 434.307129 210.407394 431.231415 C 214.758316 428.262268 212.40123 428.710754 211.645874 422.286011 C 210.909286 411.858521 211.922424 408.118561 206.949326 400.269714 C 199.072037 387.854767 198.512817 387.998169 193.365189 379.816833 C 188.217285 371.749908 182.411636 354.722839 176.519333 354.606964 C 171.885315 354.492188 169.196472 357.009827 166.278503 359.984955 C 163.360413 362.959106 162.513397 377.027588 158.139389 381.479614 Z"/>
                    <path id="path6284" fill="#ffd028" stroke="none" d="M 158.424606 381.566833 C 151.44133 388.511353 135.668472 382.806274 131.686279 386.252289 C 127.581284 389.852417 136.798462 396.108337 135.900894 403.491455 C 135.338287 407.810059 133.609573 409.801575 132.646057 415.635925 C 131.929703 420.169678 136.228638 419.658325 138.597595 420.818665 C 149.499344 425.434906 151.69548 424.644257 168.231796 427.818909 C 182.313614 430.484467 186.632431 435.94812 201.195038 434.642029 C 206.082642 434.231567 205.530228 434.067749 210.198074 431.076294 C 214.453995 428.268982 212.136658 428.671936 211.28923 422.0495 C 210.356873 411.692749 211.555145 407.837463 206.824295 400.374359 C 198.995453 388.040833 198.348984 388.243347 193.234528 380.116302 C 188.120239 372.101715 182.446793 355.016479 176.593155 354.901611 C 171.98938 354.787781 169.318192 357.289001 166.419296 360.243774 C 163.520309 363.198486 162.776047 377.153625 158.424606 381.566833 Z"/>
                    <path id="path6286" fill="#ffd02b" stroke="none" d="M 158.709717 381.65509 C 151.549271 388.758484 135.638687 383.054382 131.80809 386.414154 C 127.733238 390.026855 137.09462 396.40686 136.19989 403.465332 C 135.625748 407.755829 133.997055 409.816132 132.886993 415.602997 C 132.059097 420.110565 136.55603 419.575012 138.955322 420.666534 C 150.216476 425.194611 152.624451 424.628845 168.360611 427.632813 C 182.352692 430.269287 186.643127 435.707764 201.105911 434.411377 C 205.961517 434.006714 205.313156 433.827332 209.989716 430.920227 C 214.149673 428.275757 211.872055 428.633179 210.932602 421.812958 C 209.80542 411.526978 211.187836 407.557343 206.699265 400.479034 C 198.917908 388.226929 198.184219 388.489502 193.103836 380.415771 C 188.023285 372.454468 182.48204 355.310181 176.666885 355.196228 C 172.093552 355.082397 169.439896 357.567139 166.560104 360.502502 C 163.680206 363.437897 163.038773 377.280579 158.709717 381.65509 Z"/>
                    <path id="path6288" fill="#ffd02d" stroke="none" d="M 158.994949 381.743286 C 151.657211 389.005615 135.608917 383.30246 131.930008 386.575043 C 127.885094 390.200378 137.390671 396.704437 136.498993 403.439178 C 135.913208 407.701569 134.384628 409.831696 133.12793 415.571045 C 132.188477 420.051453 136.883438 419.491699 139.312973 420.514435 C 150.933594 424.953339 153.553513 424.613434 168.489532 427.446747 C 182.391861 430.053192 186.6539 435.468384 201.017731 434.179749 C 205.841354 433.78186 205.095123 433.587952 209.781357 430.765137 C 213.845352 428.282501 211.607483 428.59436 210.575958 421.57547 C 209.253006 411.362183 210.820557 407.276245 206.573257 400.583679 C 198.841324 388.412994 198.020386 388.735657 192.97319 380.71524 C 187.926331 372.806274 182.517212 355.603821 176.740707 355.489899 C 172.197601 355.378052 169.561584 357.846283 166.700897 360.762268 C 163.840103 363.678223 163.301407 377.406616 158.994949 381.743286 Z"/>
                    <path id="path6290" fill="#ffd030" stroke="none" d="M 159.280167 381.831512 C 151.765167 389.252777 135.579147 383.550598 132.051819 386.735931 C 128.037048 390.374817 137.686829 397.002991 136.797989 403.414001 C 136.200577 407.647339 134.772095 409.847229 133.368866 415.538116 C 132.317963 419.99234 137.210922 419.408386 139.6707 420.362305 C 151.650787 424.713074 154.482452 424.597992 168.618362 427.260651 C 182.431046 429.837067 186.664597 435.228973 200.929565 433.949066 C 205.721191 433.556 204.87706 433.348541 209.572021 430.609131 C 213.541016 428.289246 211.343872 428.555573 210.219345 421.338989 C 208.700607 411.196411 210.452301 406.995148 206.448227 400.688354 C 198.76474 388.599091 197.855621 388.981812 192.842499 381.014709 C 187.829269 373.159058 182.55246 355.897461 176.814453 355.784546 C 172.301651 355.672668 169.683304 358.124451 166.84169 361.021057 C 163.999985 363.917664 163.564041 377.532654 159.280167 381.831512 Z"/>
                </g>
                <path id="path6292" fill="#ffd133" stroke="none" d="M 159.565384 381.919739 C 151.873093 389.499939 135.549362 383.798676 132.173721 386.896851 C 128.188995 390.549286 137.982986 397.300537 137.09697 403.387848 C 136.488052 407.593079 135.159576 409.861816 133.609818 415.506134 C 132.447357 419.933258 137.538315 419.324097 140.028442 420.210144 C 152.36792 424.472778 155.411407 424.583557 168.747269 427.074615 C 182.4702 429.620941 186.675278 434.989624 200.841385 433.718384 C 205.600082 433.331177 204.660019 433.109131 209.363663 430.454041 C 213.237671 428.29599 211.0793 428.516815 209.862686 421.102448 C 208.148193 411.030579 210.084991 406.715027 206.323196 400.792999 C 198.687195 388.785156 197.691788 389.22699 192.711838 381.314148 C 187.73233 373.510864 182.587708 356.190186 176.888275 356.078217 C 172.405823 355.967285 169.805008 358.402588 166.982483 361.279846 C 164.159882 364.157074 163.826782 377.658661 159.565384 381.919739 Z"/>
            </g>
            <linearGradient id="linearGradient3" x1="179.389484" y1="424.869572" x2="109.837328" y2="355.912253" gradientUnits="userSpaceOnUse">
                <stop offset="1e-05" stop-color="#fdf9f6" stop-opacity="0.714844"/>
                <stop offset="1" stop-color="#fdf9f6" stop-opacity="0.09375"/>
            </linearGradient>
            <path id="path3651" fill="url(#linearGradient3)" stroke="none" d="M 173.467239 345.245911 C 168.97084 345.789246 166.181412 348.541016 163.067154 351.715729 C 159.507996 355.343994 155.133591 364.627258 148.85289 369.162445 C 142.572205 373.697632 126.669975 373.216614 122.622208 378.519531 C 118.644203 383.82254 122.690765 391.554047 122.619675 405.789337 C 122.61911 411.86026 121.583244 416.419006 120.885094 420.117371 C 120.797508 420.536316 120.734261 420.875214 120.653893 421.272827 C 136.954575 431.102753 155.68364 434.262268 173.1129 428.326233 C 191.268234 422.142944 204.457092 407.382813 211.132492 388.580597 C 208.455521 384.243469 205.117676 378.801636 201.658813 373.327148 C 195.309677 363.417664 182.734543 345.456116 175.547134 345.246094 C 174.831909 345.228577 174.109589 345.168274 173.467239 345.245911 Z"/>
            <g id="g9591">
                <g id="g9593">
                    <path id="path9595" fill="#995900" stroke="none" d="M 384.84259 368.378998 C 391.122467 372.915344 407.032532 372.498108 411.079315 377.801849 C 415.056366 383.10553 410.938538 390.781067 411.007019 405.016357 C 411.006439 411.08728 412.052734 415.692932 412.750214 419.391357 C 413.726685 424.066772 414.354401 427.346558 412.400238 430.695831 C 408.840881 436.626862 403.118713 438.091766 370.390869 444.927246 C 352.875519 448.55423 336.3367 457.973083 325.241455 458.879211 C 314.14624 459.715546 311.774048 456.016968 305.005859 450.015167 C 298.307434 444.013428 296.144073 445.897278 296.354645 432.70874 C 296.565186 419.589935 305.009033 415.683014 314.570374 400.541443 C 324.131805 385.399902 325.667236 382.608795 332.018188 372.560974 C 338.369202 362.652679 350.931305 344.65036 358.118774 344.441711 C 363.84079 344.302673 367.050415 347.373322 370.608917 351.002258 C 374.167389 354.631195 378.562744 363.842682 384.84259 368.378998 Z"/>
                    <g id="g9597">
                        <path id="path9599" fill="#9e5e00" stroke="none" d="M 384.741394 368.658112 C 390.940979 373.215759 406.523132 372.33136 410.967621 377.879364 C 414.99353 383.126892 410.746643 390.746155 410.870911 404.971771 C 410.894806 411.010712 411.986481 415.518463 412.746735 419.391357 C 413.751129 424.112335 414.371887 427.339783 412.407227 430.651245 C 408.736206 436.623962 403.01059 437.55481 370.289734 444.379639 C 352.784912 447.999847 336.811676 457.27243 325.374329 458.052521 C 314.533051 458.819092 312.227661 455.309509 305.542847 449.366821 C 298.858948 443.361206 296.796387 445.220886 296.958435 432.496552 C 297.032379 419.391327 305.009033 415.683014 314.570374 400.541443 C 324.131805 385.399902 325.667236 382.608795 332.018188 372.560974 C 338.369202 362.652679 350.931305 344.65033 358.118774 344.441711 C 363.84079 344.302673 367.050415 347.373322 370.608917 351.002258 C 374.167389 354.631195 378.510406 364.066528 384.741394 368.658112 Z"/>
                        <path id="path9601" fill="#a36400" stroke="none" d="M 384.640198 368.937225 C 390.759521 373.516174 406.013733 372.163666 410.856018 377.955933 C 414.930725 383.148193 410.554779 390.711243 410.734863 404.926208 C 410.783173 410.934143 411.920166 415.343994 412.743225 419.391357 C 413.775543 424.157898 414.389343 427.332977 412.414185 430.605713 C 408.631531 436.620087 402.902496 437.017883 370.188599 443.832062 C 352.694214 447.445435 337.285675 456.570801 325.507172 457.22583 C 314.920776 457.922668 312.681305 454.601074 306.080811 448.71756 C 299.409546 442.708984 297.4487 444.544434 297.561279 432.283386 C 297.500519 419.192657 305.009033 415.683014 314.570374 400.541443 C 324.131805 385.399902 325.667236 382.608795 332.018188 372.560974 C 338.369202 362.652679 350.931305 344.65036 358.118774 344.441711 C 363.84079 344.302673 367.050415 347.373322 370.608917 351.002258 C 374.167389 354.631195 378.458008 364.289459 384.640198 368.937225 Z"/>
                        <path id="path9603" fill="#a86a00" stroke="none" d="M 384.538971 369.216309 C 390.578064 373.815674 405.504364 371.995911 410.744354 378.032471 C 414.86792 383.168518 410.362885 390.676331 410.598816 404.880646 C 410.671509 410.857574 411.853912 415.169556 412.739716 419.391357 C 413.799957 424.20343 414.406738 427.326202 412.421204 430.560181 C 408.526855 436.617188 402.794403 436.47998 370.087494 443.284454 C 352.603577 446.890106 337.76062 455.870087 325.639069 456.399109 C 315.308533 457.026184 313.134949 453.892639 306.617737 448.069214 C 299.96106 442.056763 298.101044 443.867035 298.165131 432.071167 C 297.967621 418.994049 305.009033 415.683014 314.570374 400.541443 C 324.131805 385.399902 325.667236 382.608795 332.018188 372.560974 C 338.369202 362.652679 350.931305 344.65036 358.118774 344.441711 C 363.84079 344.302673 367.050415 347.373322 370.608917 351.002258 C 374.167389 354.631195 378.40567 364.513306 384.538971 369.216309 Z"/>
                        <path id="path9605" fill="#ad7000" stroke="none" d="M 384.437775 369.495483 C 390.396606 374.116089 404.994995 371.828247 410.63269 378.109039 C 414.805115 383.18985 410.17099 390.641418 410.462738 404.835083 C 410.559875 410.781006 411.787628 414.995117 412.736267 419.391357 C 413.824371 424.248993 414.424194 427.319397 412.428192 430.514618 C 408.42218 436.613281 402.686249 435.943054 369.986359 442.736877 C 352.512878 446.335724 338.234619 455.168457 325.771912 455.572418 C 315.695313 456.129761 313.588593 453.184235 307.154755 447.419891 C 300.512573 441.404572 298.754333 443.190613 298.768951 431.858002 C 298.434784 418.79538 305.009033 415.683014 314.570374 400.541443 C 324.131805 385.399902 325.667236 382.608795 332.018188 372.560974 C 338.369202 362.652679 350.931305 344.65033 358.118774 344.441711 C 363.84079 344.302673 367.050415 347.373322 370.608917 351.002258 C 374.167389 354.631195 378.353302 364.736237 384.437775 369.495483 Z"/>
                        <path id="path9607" fill="#b27500" stroke="none" d="M 384.336578 369.774597 C 390.215149 374.415527 404.485626 371.660522 410.521057 378.185608 C 414.742279 383.210205 409.979065 390.606537 410.326691 404.78952 C 410.448242 410.703461 411.721344 414.820618 412.732758 419.391357 C 413.848785 424.293579 414.44165 427.311646 412.435181 430.469055 C 408.317535 436.609406 402.578156 435.405151 369.885193 442.188293 C 352.422241 445.780396 338.709564 454.466827 325.904755 454.744751 C 316.083099 455.23233 314.042236 452.475769 307.692719 446.77063 C 301.064087 440.751404 299.406616 442.513214 299.372772 431.644867 C 298.902924 418.595795 305.009033 415.683014 314.570374 400.541443 C 324.131805 385.399902 325.667236 382.608795 332.018188 372.560974 C 338.369202 362.652679 350.931305 344.65036 358.118774 344.441711 C 363.84079 344.302673 367.050415 347.373322 370.608917 351.002258 C 374.167389 354.631226 378.300964 364.959106 384.336578 369.774597 Z"/>
                        <path id="path9609" fill="#b77b00" stroke="none" d="M 384.235352 370.05368 C 390.033722 374.715942 403.976227 371.493774 410.409393 378.263092 C 414.679504 383.231506 409.78717 390.571625 410.190613 404.744904 C 410.336609 410.626862 411.655121 414.646179 412.729279 419.391357 C 413.873199 424.339142 414.459106 427.304871 412.442139 430.424469 C 408.21286 436.606445 402.470062 434.868195 369.784088 441.640686 C 352.331543 445.226013 339.184052 453.766144 326.037598 453.91806 C 316.469879 454.335876 314.49588 451.768341 308.229706 446.122284 C 301.615631 440.099213 300.05896 441.836792 299.976593 431.432648 C 299.370117 418.397156 305.009033 415.683014 314.570374 400.541443 C 324.131805 385.399902 325.667236 382.608795 332.018188 372.560974 C 338.369202 362.652679 350.931305 344.65033 358.118774 344.441711 C 363.84079 344.302673 367.050415 347.373322 370.608917 351.002258 C 374.167389 354.631195 378.248627 365.183014 384.235352 370.05368 Z"/>
                        <path id="path9611" fill="#bc8100" stroke="none" d="M 384.134125 370.332794 C 389.852234 375.016388 403.466827 371.32605 410.297699 378.339661 C 414.616699 383.252808 409.595276 390.536682 410.054504 404.699341 C 410.224976 410.550293 411.588806 414.471741 412.7258 419.391357 C 413.897644 424.384705 414.476532 427.298096 412.449127 430.378906 C 408.108185 436.6026 402.361938 434.331268 369.682953 441.093079 C 352.240906 444.671631 339.65863 453.064514 326.170471 453.09137 C 316.857605 453.439423 314.949493 451.059875 308.767639 445.472992 C 302.166168 439.446991 300.711273 441.16037 300.579437 431.219482 C 299.838226 418.198486 305.009033 415.683014 314.570374 400.541443 C 324.131805 385.399902 325.667236 382.608795 332.018188 372.560974 C 338.369202 362.652679 350.931305 344.65033 358.118774 344.441711 C 363.84079 344.302673 367.050415 347.373322 370.608917 351.002258 C 374.167389 354.631195 378.196228 365.405884 384.134125 370.332794 Z"/>
                        <path id="path9613" fill="#c18700" stroke="none" d="M 384.032959 370.611908 C 389.670776 375.315857 402.957458 371.158356 410.186035 378.416229 C 414.553894 383.273193 409.403381 390.501831 409.918488 404.653778 C 410.113312 410.473724 411.522522 414.297272 412.722321 419.391357 C 413.922058 424.430237 414.493988 427.291321 412.456116 430.333374 C 408.00351 436.59967 402.253815 433.793335 369.581818 440.545502 C 352.150208 444.116272 340.133209 452.363861 326.302368 452.264679 C 317.245361 452.542938 315.403137 450.351471 309.304626 444.824646 C 302.717682 438.7948 301.363617 440.482971 301.183258 431.007294 C 300.30542 417.999878 305.009033 415.683014 314.570374 400.541443 C 324.131805 385.399902 325.667236 382.608795 332.018188 372.560974 C 338.369202 362.652649 350.931305 344.65036 358.118774 344.441711 C 363.84079 344.302673 367.050415 347.373352 370.608917 351.002258 C 374.167389 354.631195 378.14389 365.629822 384.032959 370.611908 Z"/>
                        <path id="path9615" fill="#c68c00" stroke="none" d="M 383.931732 370.891052 C 389.489349 375.616302 402.44809 370.990601 410.074432 378.492767 C 414.491089 383.294495 409.211487 390.466919 409.782379 404.608215 C 410.001678 410.397156 411.456268 414.122803 412.718811 419.391357 C 413.946472 424.4758 414.511444 427.284546 412.463104 430.287842 C 407.898834 436.595795 402.145721 433.256409 369.480682 439.997925 C 352.05957 443.56189 340.607788 451.662201 326.435242 451.437988 C 317.632141 451.646515 315.856812 449.643036 309.841644 444.175354 C 303.269196 438.142578 302.016907 439.806549 301.787079 430.794128 C 300.772522 417.801208 305.009033 415.683014 314.570374 400.541443 C 324.131805 385.399902 325.667236 382.608795 332.018188 372.560974 C 338.369202 362.652679 350.931305 344.65033 358.118774 344.441711 C 363.84079 344.302673 367.050415 347.373322 370.608917 351.002258 C 374.167389 354.631195 378.091522 365.852661 383.931732 370.891052 Z"/>
                        <path id="path9617" fill="#cc9200" stroke="none" d="M 383.830536 371.170166 C 389.307861 375.915771 401.93866 370.822906 409.962769 378.569336 C 414.428284 383.314819 409.019592 390.431976 409.646332 404.562683 C 409.890015 410.319611 411.389984 413.948334 412.715302 419.391357 C 413.970886 424.520355 414.5289 427.276794 412.470062 430.242279 C 407.794189 436.591919 402.037598 432.718536 369.379578 439.449341 C 351.968903 443.006561 341.082367 450.960571 326.568085 450.610291 C 318.019928 450.749084 316.310425 448.934631 310.379608 443.526062 C 303.82074 437.48941 302.669189 439.12915 302.390869 430.580963 C 301.240692 417.601624 305.009033 415.683014 314.570374 400.541443 C 324.131805 385.399902 325.667236 382.608795 332.018188 372.560974 C 338.369202 362.652679 350.931305 344.65036 358.118774 344.441711 C 363.84079 344.302673 367.050415 347.373352 370.608917 351.002258 C 374.167389 354.631195 378.039185 366.075623 383.830536 371.170166 Z"/>
                        <path id="path9619" fill="#d19800" stroke="none" d="M 383.729309 371.449249 C 389.126404 376.216187 401.429291 370.656189 409.851105 378.646851 C 414.365479 383.336182 408.827698 390.397095 409.510254 404.518066 C 409.778381 410.243042 411.3237 413.773895 412.711792 419.391357 C 413.995331 424.565948 414.546295 427.269989 412.477051 430.197693 C 407.689484 436.588959 401.929504 432.18158 369.278442 438.901764 C 351.878235 442.452179 341.556946 450.259888 326.700958 449.7836 C 318.406677 449.8526 316.764069 448.227142 310.916565 442.877716 C 304.372284 436.837219 303.321533 438.452728 302.99469 430.368774 C 301.707855 417.403015 305.009033 415.683014 314.570374 400.541443 C 324.131805 385.399902 325.667236 382.608795 332.018188 372.560974 C 338.369202 362.652679 350.931305 344.65036 358.118774 344.441711 C 363.84079 344.302673 367.050415 347.373322 370.608917 351.002258 C 374.167389 354.631195 377.986816 366.299469 383.729309 371.449249 Z"/>
                        <path id="path9621" fill="#d69e00" stroke="none" d="M 383.628113 371.728363 C 388.944946 376.516602 400.919891 370.488464 409.739471 378.723389 C 414.302673 383.357483 408.635803 390.362183 409.374207 404.472504 C 409.666748 410.166443 411.257416 413.599426 412.708344 419.391357 C 414.019714 424.611511 414.563782 427.263214 412.484039 430.15213 C 407.584839 436.585083 401.821381 431.644653 369.177307 438.354156 C 351.787567 441.897797 342.031525 449.558228 326.833801 448.956909 C 318.794464 448.956177 317.217743 447.518738 311.454529 442.228424 C 304.922791 436.184998 303.973846 437.776306 303.597565 430.155609 C 302.175995 417.204346 305.009033 415.683014 314.570374 400.541443 C 324.131805 385.399902 325.667236 382.608795 332.018188 372.560974 C 338.369202 362.652679 350.931305 344.65036 358.118774 344.441711 C 363.84079 344.302673 367.050415 347.373352 370.608917 351.002258 C 374.167389 354.631195 377.934448 366.5224 383.628113 371.728363 Z"/>
                        <path id="path9623" fill="#dba300" stroke="none" d="M 383.526886 372.007507 C 388.763489 376.81604 400.410522 370.32074 409.627808 378.799988 C 414.239868 383.377808 408.443939 390.32724 409.238129 404.426941 C 409.555084 410.089905 411.191162 413.424957 412.704834 419.391357 C 414.044128 424.657043 414.581238 427.256439 412.491028 430.106567 C 407.480164 436.582153 401.713257 431.10675 369.076141 437.80658 C 351.696899 441.342438 342.506104 448.857574 326.965637 448.130219 C 319.18222 448.059723 317.671356 446.810303 311.991486 441.580109 C 305.474335 435.532776 304.62616 437.098907 304.201355 429.94342 C 302.643158 417.005737 305.009033 415.683014 314.570374 400.541443 C 324.131805 385.399902 325.667236 382.608795 332.018188 372.560974 C 338.369202 362.652679 350.931305 344.65036 358.118774 344.441711 C 363.84079 344.302673 367.050415 347.373322 370.608917 351.002258 C 374.167389 354.631195 377.88208 366.746277 383.526886 372.007507 Z"/>
                        <path id="path9625" fill="#e0a900" stroke="none" d="M 383.42569 372.28656 C 388.582062 377.116455 399.901123 370.153046 409.516113 378.876526 C 414.177094 383.399139 408.252045 390.292358 409.102051 404.381378 C 409.443451 410.013306 411.124878 413.250488 412.701355 419.391357 C 414.068573 424.702606 414.598694 427.249634 412.497986 430.061035 C 407.375458 436.578278 401.605164 430.569824 368.975037 437.258972 C 351.606232 440.788086 342.980652 448.155945 327.098511 447.303528 C 319.56897 447.163269 318.125031 446.101868 312.528473 440.930786 C 306.025848 434.880585 305.27948 436.422485 304.805176 429.730255 C 303.110321 416.807068 305.009033 415.683014 314.570374 400.541443 C 324.131805 385.399902 325.667236 382.608795 332.018188 372.560974 C 338.369202 362.652679 350.931305 344.65036 358.118774 344.441711 C 363.84079 344.302673 367.050415 347.373322 370.608917 351.002258 C 374.167389 354.631195 377.829742 366.969177 383.42569 372.28656 Z"/>
                        <path id="path9627" fill="#e5af00" stroke="none" d="M 383.324463 372.565735 C 388.400604 377.415955 399.391754 369.985321 409.404449 378.953064 C 414.114258 383.419495 408.06015 390.257446 408.966003 404.335815 C 409.331818 409.93576 411.058594 413.07605 412.697876 419.391357 C 414.092987 424.747192 414.616089 427.241882 412.504944 430.015472 C 407.270813 436.574402 401.49707 430.031921 368.873901 436.710388 C 351.515564 440.232727 343.455231 447.454285 327.231354 446.475861 C 319.956757 446.265839 318.578674 445.393463 313.066437 440.281494 C 306.577393 434.227386 305.931763 435.745087 305.408997 429.51709 C 303.57843 416.607452 305.009033 415.683014 314.570374 400.541443 C 324.131805 385.399902 325.667236 382.608795 332.018188 372.560974 C 338.369202 362.652679 350.931305 344.65036 358.118774 344.441711 C 363.84079 344.302673 367.050415 347.373352 370.608917 351.002258 C 374.167389 354.631195 377.777405 367.192078 383.324463 372.565735 Z"/>
                        <path id="path9629" fill="#eab500" stroke="none" d="M 383.223267 372.844849 C 388.219116 377.71637 398.882385 369.818573 409.292816 379.030609 C 414.051453 383.440796 407.868256 390.222534 408.829895 404.291229 C 409.220184 409.859192 410.99234 412.901611 412.694366 419.391357 C 414.117401 424.792725 414.633545 427.235107 412.511963 429.970917 C 407.166138 436.571503 401.388947 429.494965 368.772766 436.162811 C 351.424927 439.678345 343.92981 446.753632 327.364197 445.64917 C 320.344513 445.369385 319.032318 444.685974 313.603424 439.633179 C 307.128876 433.575226 306.584076 435.068665 306.012817 429.304901 C 304.045593 416.408844 305.009033 415.683014 314.570374 400.541443 C 324.131805 385.399902 325.667236 382.608795 332.018188 372.560974 C 338.369202 362.652679 350.931305 344.65036 358.118774 344.441711 C 363.84079 344.302673 367.050415 347.373322 370.608917 351.002258 C 374.167389 354.631226 377.725067 367.415955 383.223267 372.844849 Z"/>
                        <path id="path9631" fill="#efba00" stroke="none" d="M 383.12204 373.123962 C 388.037659 378.016815 398.372986 369.650879 409.181152 379.107147 C 413.988647 383.462128 407.676361 390.187622 408.693848 404.245667 C 409.108521 409.782593 410.926056 412.727112 412.690887 419.391357 C 414.141846 424.838287 414.651001 427.228333 412.518951 429.925354 C 407.061462 436.567596 401.280823 428.958038 368.671631 435.615234 C 351.334259 439.123962 344.404358 446.052002 327.49707 444.822479 C 320.731293 444.472931 319.485931 443.97757 314.141357 438.983856 C 307.679474 432.923004 307.236389 434.392212 306.615662 429.091736 C 304.513733 416.210175 305.009033 415.683014 314.570374 400.541443 C 324.131805 385.399902 325.667236 382.608795 332.018188 372.560974 C 338.369202 362.652679 350.931305 344.65036 358.118774 344.441711 C 363.84079 344.302673 367.050415 347.373322 370.608917 351.002258 C 374.167389 354.631195 377.672699 367.638855 383.12204 373.123962 Z"/>
                        <path id="path9633" fill="#f4c000" stroke="none" d="M 383.020844 373.403046 C 387.856201 378.316284 397.863586 369.483154 409.069489 379.183716 C 413.925842 383.482452 407.484467 390.15271 408.5578 404.200104 C 408.996887 409.706055 410.859772 412.552673 412.687378 419.391357 C 414.16626 424.88382 414.668457 427.221558 412.52594 429.879822 C 406.956818 436.564667 401.172699 428.420166 368.570496 435.067627 C 351.243591 438.568604 344.878967 445.351288 327.628967 443.995789 C 321.119049 443.576477 319.939575 443.269135 314.678375 438.33551 C 308.230988 432.270813 307.888733 433.714844 307.219482 428.879547 C 304.980896 416.011566 305.009033 415.683014 314.570374 400.541443 C 324.131805 385.399902 325.667236 382.608795 332.018188 372.560974 C 338.369202 362.652679 350.931305 344.65036 358.118774 344.441711 C 363.84079 344.302673 367.050415 347.373322 370.608917 351.002258 C 374.167389 354.631195 377.620331 367.862732 383.020844 373.403046 Z"/>
                        <path id="path9635" fill="#f9c600" stroke="none" d="M 382.919647 373.682159 C 387.674744 378.616699 397.354218 369.31543 408.957855 379.260284 C 413.863037 383.503784 407.292572 390.117828 408.421722 404.154541 C 408.885254 409.629456 410.793518 412.378235 412.683929 419.391357 C 414.190674 424.929413 414.685883 427.214783 412.532928 429.834229 C 406.852112 436.560791 401.064606 427.883209 368.46936 434.52002 C 351.152954 438.014252 345.353516 444.649658 327.76181 443.169067 C 321.505798 442.679993 320.39325 442.56073 315.215332 437.686249 C 308.782532 431.618591 308.542023 433.038391 307.823303 428.666382 C 305.448059 415.812897 305.009033 415.683014 314.570374 400.541443 C 324.131805 385.399902 325.667236 382.608795 332.018188 372.560974 C 338.369202 362.652679 350.931305 344.65036 358.118774 344.441711 C 363.84079 344.302673 367.050415 347.373322 370.608917 351.002258 C 374.167389 354.631195 377.567963 368.085632 382.919647 373.682159 Z"/>
                    </g>
                    <path id="path9637" fill="#ffcc00" stroke="none" d="M 382.81842 373.961304 C 387.493286 378.916168 396.844849 369.147705 408.846191 379.336792 C 413.800262 383.524109 407.100677 390.082916 408.285645 404.108948 C 408.773621 409.55188 410.727234 412.203766 412.68042 419.391357 C 414.215088 424.973999 414.703339 427.207001 412.539917 429.788696 C 406.747467 436.556915 400.956512 427.345306 368.368225 433.971466 C 351.062256 437.458893 345.828125 443.947998 327.894684 442.341431 C 321.893585 441.782593 320.846863 441.852295 315.753326 437.036926 C 309.334045 430.965393 309.194336 432.361023 308.427124 428.453217 C 305.916199 415.613312 305.009033 415.683014 314.570374 400.541443 C 324.131805 385.399902 325.667236 382.608795 332.018188 372.560974 C 338.369202 362.652679 350.931305 344.65036 358.118774 344.441711 C 363.84079 344.302673 367.050415 347.373352 370.608917 351.002258 C 374.167389 354.631195 377.515594 368.308533 382.81842 373.961304 Z"/>
                </g>
                <g id="g9639">
                    <path id="path9641" fill="#ffcc00" stroke="none" d="M 379.795349 379.413574 C 383.941376 383.812103 397.511841 378.096191 403.919434 382.93396 C 408.505157 386.327454 401.594238 390.598938 402.5354 403.163483 C 402.911896 407.937683 406.241486 408.818024 404.858734 415.414093 C 403.790192 420.377167 402.659332 420.251068 400.774536 422.51297 C 395.622528 428.543671 396.816376 424.14566 367.477325 430.048126 C 351.959656 433.188782 347.184357 439.030548 331.039124 437.584015 C 325.635986 437.081482 324.630951 437.143402 320.108215 432.808807 C 314.328522 427.405121 317.281525 428.536407 316.653809 425.081238 C 314.455811 413.583679 316.215057 411.57373 324.823578 397.942108 C 333.431152 384.309448 332.677216 383.556335 338.332245 374.572571 C 343.987244 365.714844 351.7789 349.570007 358.249603 349.44458 C 363.338379 349.319092 366.290924 352.083435 369.494446 355.35083 C 372.698334 358.618225 375.084259 374.38797 379.795349 379.413574 Z"/>
                    <g id="g9643">
                        <path id="path9645" fill="#ffcc02" stroke="none" d="M 379.510132 379.50177 C 383.833374 384.059235 397.541595 378.344299 403.797546 383.095764 C 408.35318 386.500916 401.298035 390.896484 402.23642 403.137299 C 402.624512 407.883392 405.854034 408.833466 404.617828 415.382111 C 403.660767 420.318024 402.33194 420.167694 400.416809 422.360748 C 394.905457 428.302307 395.887421 424.130066 367.348572 429.862061 C 351.920502 432.972656 347.173706 438.791168 331.127319 437.353333 C 325.757172 436.855652 324.84906 436.904022 320.316589 432.652802 C 314.632843 427.411926 317.546112 428.497681 317.010498 424.843811 C 315.00827 413.418976 316.582397 411.292725 324.948608 398.046783 C 333.507721 384.495575 332.841949 383.801575 338.463013 374.87207 C 344.084198 366.067596 351.743683 349.863647 358.175812 349.739197 C 363.234283 349.614685 366.169189 352.362549 369.353607 355.610596 C 372.538422 358.858582 374.821594 374.513916 379.510132 379.50177 Z"/>
                        <path id="path9647" fill="#ffcc05" stroke="none" d="M 379.224976 379.589935 C 383.725494 384.306366 397.57132 378.592407 403.675659 383.256653 C 408.201202 386.675385 401.001923 391.194977 401.937408 403.112061 C 402.337067 407.829102 405.466522 408.847992 404.376892 415.349121 C 403.531403 420.258911 402.004578 420.08432 400.059235 422.208588 C 394.188385 428.061859 394.958466 424.115448 367.219666 429.67691 C 351.88147 432.756531 347.163055 438.551758 331.215576 437.121704 C 325.87738 436.630829 325.066162 436.664642 320.52594 432.497742 C 314.936218 427.418732 317.809753 428.458954 317.367157 424.607391 C 315.560699 413.253265 316.949738 411.012695 325.073608 398.151459 C 333.584229 384.681641 333.005737 384.047729 338.593872 375.17157 C 344.181091 366.419434 351.708374 350.157318 358.101959 350.033844 C 363.130157 349.909302 366.047424 352.640717 369.212769 355.869324 C 372.378479 359.097961 374.55896 374.639893 379.224976 379.589935 Z"/>
                        <path id="path9649" fill="#ffcc07" stroke="none" d="M 378.939728 379.678101 C 383.617523 384.553497 397.601166 378.840515 403.553802 383.417542 C 408.049225 386.849823 400.705688 391.492462 401.638458 403.085846 C 402.049622 407.77478 405.079071 408.863434 404.135925 415.317108 C 403.401917 420.199799 401.677094 420.000916 399.701508 422.056396 C 393.471222 427.821442 394.02951 424.099854 367.090881 429.490845 C 351.842346 432.540375 347.152435 438.311401 331.303772 436.891052 C 325.997559 436.405029 325.284271 436.425293 320.734344 432.341736 C 315.24054 427.425537 318.07431 428.420197 317.723846 424.370911 C 316.113129 413.087616 317.318054 410.731628 325.199585 398.256165 C 333.661774 384.867737 333.170441 384.293915 338.723694 375.471039 C 344.277954 366.772247 351.673096 350.450958 358.028168 350.327515 C 363.02594 350.204895 365.925659 352.9198 369.071991 356.129089 C 372.218628 359.337341 374.296173 374.765869 378.939728 379.678101 Z"/>
                        <path id="path9651" fill="#ffcd0a" stroke="none" d="M 378.65451 379.766266 C 383.509552 384.800629 397.63089 379.088623 403.431854 383.57843 C 407.897217 387.023285 400.409515 391.790955 401.339447 403.059662 C 401.762268 407.72049 404.691498 408.878937 403.895111 415.284149 C 403.272552 420.140656 401.349701 419.917542 399.343781 421.904175 C 392.75415 427.580078 393.100555 424.084229 366.962006 429.304718 C 351.803192 432.325226 347.141785 438.072021 331.391998 436.6604 C 326.118774 436.180176 325.50235 436.185913 320.942749 432.186676 C 315.544861 427.432343 318.338928 428.381439 318.080536 424.134491 C 316.664642 412.921936 317.685394 410.450623 325.324646 398.361786 C 333.738312 385.053833 333.334229 384.5401 338.854706 375.770508 C 344.374969 367.124023 351.637848 350.744629 357.954285 350.622131 C 362.921814 350.499512 365.803925 353.197937 368.931183 356.387817 C 372.058716 359.576721 374.033539 374.892822 378.65451 379.766266 Z"/>
                        <path id="path9653" fill="#ffcd0c" stroke="none" d="M 378.369232 379.853455 C 383.40152 385.047791 397.660614 379.336731 403.310028 383.740234 C 407.745331 387.197723 400.113312 392.08847 401.040436 403.034424 C 401.474792 407.666199 404.304016 408.893433 403.654144 415.252136 C 403.143158 420.080536 401.022339 419.834167 398.986115 421.752014 C 392.037048 427.33963 392.1716 424.068665 366.833221 429.118652 C 351.764069 432.1091 347.131042 437.832611 331.480225 436.428772 C 326.238922 435.955322 325.720428 435.946564 321.1521 432.03067 C 315.849182 427.439178 318.603485 428.342682 318.437225 423.897095 C 317.217072 412.757202 318.052765 410.170532 325.449615 398.466492 C 333.81485 385.239929 333.498932 384.785309 338.985321 376.070007 C 344.471832 367.476837 351.602539 351.0383 357.880432 350.915771 C 362.817596 350.794128 365.682159 353.477112 368.790314 356.646576 C 371.898773 359.817047 373.770782 375.018768 378.369232 379.853455 Z"/>
                        <path id="path9655" fill="#ffcd0f" stroke="none" d="M 378.084015 379.94165 C 383.293549 385.294922 397.690338 379.584869 403.188171 383.901123 C 407.593353 387.372162 399.817169 392.386932 400.741486 403.00824 C 401.187439 407.611877 403.916534 408.908875 403.413239 415.219177 C 403.013702 420.021423 400.694855 419.750793 398.62851 421.599792 C 391.319977 427.099213 391.242615 424.05307 366.704407 428.932556 C 351.724945 431.892944 347.120422 437.593262 331.568451 436.19812 C 326.359161 435.729523 325.937531 435.707214 321.360504 431.87561 C 316.152527 427.445984 318.868103 428.303955 318.793884 423.660614 C 317.769531 412.591553 318.420105 409.889526 325.575623 398.571167 C 333.892395 385.425995 333.66272 385.031494 339.116028 376.369507 C 344.568756 367.828674 351.567261 351.33197 357.806641 351.210388 C 362.713501 351.089722 365.560425 353.755219 368.649445 356.906311 C 371.738831 360.056427 373.508118 375.144745 378.084015 379.94165 Z"/>
                        <path id="path9657" fill="#ffcd11" stroke="none" d="M 377.798889 380.029816 C 383.185577 385.542023 397.720062 379.832947 403.066254 384.062012 C 407.441376 387.545624 399.520996 392.684448 400.442474 402.982056 C 400.899994 407.557587 403.529053 408.924377 403.172333 415.187164 C 402.884308 419.96228 400.367462 419.667419 398.270752 421.447601 C 390.602783 426.857788 390.313568 424.038422 366.575562 428.74646 C 351.685883 431.677795 347.109772 437.353851 331.657623 435.967468 C 326.480316 435.5047 326.15564 435.467834 321.569824 431.720581 C 316.456848 427.452789 319.131683 428.265198 319.150543 423.424194 C 318.32196 412.425873 318.788422 409.608521 325.700623 398.675842 C 333.968964 385.613037 333.827454 385.27771 339.246643 376.668976 C 344.665741 368.180481 351.532043 351.624634 357.732727 351.505066 C 362.609375 351.384338 365.438629 354.034302 368.508606 357.16507 C 371.578888 360.295776 373.245453 375.271698 377.798889 380.029816 Z"/>
                        <path id="path9659" fill="#ffce14" stroke="none" d="M 377.513641 380.117981 C 383.077576 385.789154 397.749786 380.081085 402.944397 384.22287 C 407.289368 387.720093 399.224792 392.982941 400.143402 402.956818 C 400.612549 407.503296 403.141571 408.938873 402.931335 415.154175 C 402.754913 419.903168 400.0401 419.584045 397.913086 421.29541 C 389.885742 426.617401 389.384613 424.022858 366.446777 428.560364 C 351.646759 431.46167 347.099121 437.113495 331.745819 435.73584 C 326.600494 435.27887 326.373718 435.228455 321.778229 431.564545 C 316.761169 427.459625 319.396271 428.226471 319.507263 423.187714 C 318.87442 412.261169 319.155762 409.328461 325.825653 398.780518 C 334.045471 385.799164 333.992188 385.523895 339.377258 376.968506 C 344.762573 368.533264 351.496735 351.918274 357.658966 351.798676 C 362.505157 351.679932 365.316895 354.312469 368.367798 357.423828 C 371.418976 360.535156 372.982697 375.397644 377.513641 380.117981 Z"/>
                        <path id="path9661" fill="#ffce16" stroke="none" d="M 377.228424 380.206177 C 382.969666 386.036285 397.77951 380.329224 402.822479 384.384705 C 407.13739 387.894531 398.928589 393.280426 399.844391 402.930603 C 400.325195 407.448975 402.754089 408.954315 402.69043 415.122192 C 402.625519 419.844025 399.712708 419.500671 397.555359 421.143219 C 389.168701 426.376984 388.455688 424.007263 366.317902 428.374268 C 351.607635 431.245544 347.088501 436.874115 331.834076 435.505188 C 326.720703 435.054047 326.590851 434.989105 321.987549 431.409485 C 317.065491 427.466431 319.660889 428.187744 319.863953 422.950317 C 319.42688 412.09549 319.523071 409.047424 325.95163 398.885193 C 334.122009 385.985229 334.155975 385.769104 339.507874 377.267975 C 344.859467 368.885071 351.461456 352.211914 357.585083 352.093323 C 362.401031 351.974548 365.19516 354.591614 368.226959 357.683533 C 371.259033 360.774536 372.720032 375.523621 377.228424 380.206177 Z"/>
                        <path id="path9663" fill="#ffce19" stroke="none" d="M 376.943176 380.293335 C 382.861664 386.283417 397.809265 380.577332 402.700653 384.545563 C 406.985443 388.067963 398.632446 393.578918 399.545441 402.905396 C 400.03772 407.394684 402.366608 408.969818 402.449585 415.090179 C 402.496063 419.784882 399.385223 419.417297 397.197723 420.991028 C 388.451599 426.135559 387.526703 423.991638 366.189087 428.188171 C 351.568481 431.030396 347.07785 436.634705 331.922241 435.274536 C 326.841888 434.829224 326.808929 434.749725 322.195953 431.253479 C 317.369812 427.473206 319.925476 428.148987 320.220612 422.713867 C 319.979309 411.929779 319.890442 408.766418 326.07666 398.990875 C 334.199524 386.171326 334.320709 386.015289 339.638489 377.567444 C 344.956451 369.237854 351.426208 352.505615 357.511292 352.386932 C 362.296936 352.269165 365.073395 354.86972 368.08609 357.942322 C 371.099091 361.014862 372.457367 375.650574 376.943176 380.293335 Z"/>
                        <path id="path9665" fill="#ffce1c" stroke="none" d="M 376.657959 380.381531 C 382.753693 386.530548 397.83902 380.825439 402.578674 384.706451 C 406.833557 388.242401 398.336243 393.876434 399.246429 402.879211 C 399.750366 407.340393 401.979034 408.984314 402.208649 415.05722 C 402.366699 419.725739 399.057831 419.333923 396.840027 420.83786 C 387.734436 425.895142 386.597748 423.977051 366.060211 428.002075 C 351.529327 430.81424 347.06723 436.395325 332.010468 435.042908 C 326.962097 434.603394 327.027008 434.510376 322.404358 431.09845 C 317.673157 427.480042 320.189087 428.110229 320.576324 422.477417 C 320.531769 411.765076 320.258759 408.486328 326.20163 399.095551 C 334.276093 386.357422 334.484467 386.261475 339.769104 377.866974 C 345.053345 369.589691 351.3909 352.799286 357.437439 352.68158 C 362.192719 352.564758 364.95166 355.147888 367.945221 358.20105 C 370.939117 361.254242 372.194611 375.77655 376.657959 380.381531 Z"/>
                        <path id="path9667" fill="#ffcf1e" stroke="none" d="M 376.372803 380.469666 C 382.645721 386.778625 397.868744 381.073517 402.456848 384.86731 C 406.68158 388.41687 398.040039 394.174896 398.947449 402.853027 C 399.462921 407.286102 401.591583 408.999786 401.967743 415.025208 C 402.237305 419.666626 398.730469 419.250519 396.4823 420.685669 C 387.017365 425.654724 385.668823 423.961456 365.931427 427.815979 C 351.490326 430.598114 347.056488 436.155945 332.098694 434.812256 C 327.082275 434.378571 327.245117 434.270996 322.613708 430.942413 C 317.977478 427.486847 320.453674 428.071503 320.933014 422.240967 C 321.084198 411.599396 320.626099 408.205322 326.327637 399.200256 C 334.352661 386.543518 334.6492 386.50769 339.899719 378.166443 C 345.150238 369.942505 351.355621 353.092926 357.363647 352.976196 C 362.088593 352.859375 364.829865 355.427002 367.804382 358.460815 C 370.779175 361.493622 371.931946 375.902527 376.372803 380.469666 Z"/>
                        <path id="path9669" fill="#ffcf21" stroke="none" d="M 376.087585 380.557831 C 382.53772 387.025757 397.89856 381.320679 402.3349 385.029175 C 406.529572 388.590302 397.743805 394.473389 398.648468 402.827789 C 399.175476 407.231781 401.204102 409.015259 401.726776 414.992218 C 402.107819 419.606506 398.402985 419.167145 396.124634 420.533447 C 386.300293 425.41333 384.739838 423.945862 365.802551 427.629883 C 351.451172 430.381989 347.045837 435.915588 332.18692 434.581604 C 327.20343 434.153748 327.462219 434.031616 322.822113 430.787354 C 318.281799 427.493683 320.718262 428.032776 321.289673 422.00354 C 321.636658 411.433716 320.993439 407.924255 326.452667 399.304932 C 334.430145 386.729584 334.812988 386.752869 340.030365 378.465912 C 345.247253 370.294281 351.320404 353.386597 357.289764 353.269836 C 361.984497 353.154968 364.70813 355.705139 367.663544 358.719543 C 370.619354 361.732971 371.669312 376.028442 376.087585 380.557831 Z"/>
                        <path id="path9671" fill="#ffcf23" stroke="none" d="M 375.802307 380.645996 C 382.429718 387.272919 397.928284 381.568787 402.213074 385.190033 C 406.377625 388.76474 397.447723 394.770874 398.349487 402.801575 C 398.888123 407.17749 400.816589 409.029755 401.48584 414.960236 C 401.978455 419.547394 398.075592 419.083771 395.767029 420.381287 C 385.583221 425.172913 383.810883 423.930267 365.673767 427.443787 C 351.412018 430.166809 347.035217 435.676208 332.275146 434.349976 C 327.323639 433.927917 327.680298 433.792267 323.031464 430.632294 C 318.586121 427.500488 320.982849 427.994019 321.646332 421.76712 C 322.189117 411.268066 321.360779 407.644226 326.577637 399.409607 C 334.506714 386.915649 334.977722 386.999084 340.16098 378.765442 C 345.344116 370.647095 351.285095 353.67926 357.215973 353.564514 C 361.880249 353.449585 364.586365 355.984222 367.522797 358.978302 C 370.459412 361.973328 371.406555 376.155396 375.802307 380.645996 Z"/>
                        <path id="path9673" fill="#ffcf26" stroke="none" d="M 375.51709 380.734192 C 382.321747 387.52005 397.958008 381.816895 402.091156 385.350922 C 406.225616 388.938232 397.15152 395.069366 398.050476 402.775391 C 398.600647 407.123169 400.429138 409.045227 401.244934 414.927246 C 401.84906 419.488251 397.74823 419.000366 395.409271 420.229065 C 384.866028 424.931519 382.881958 423.914673 365.544891 427.25769 C 351.372894 429.950684 347.024567 435.436829 332.363373 434.119324 C 327.443817 433.703064 327.898376 433.552887 323.239868 430.476318 C 318.889496 427.506348 321.24649 427.955261 322.003021 421.53067 C 322.741547 411.103333 321.729095 407.363159 326.703674 399.515228 C 334.583282 387.101776 335.142456 387.24527 340.291565 379.064911 C 345.44101 370.998901 351.249817 353.972931 357.14212 353.858154 C 361.776154 353.744232 364.464539 356.26239 367.381958 359.238037 C 370.299469 362.212708 371.14389 376.281372 375.51709 380.734192 Z"/>
                        <path id="path9675" fill="#ffd028" stroke="none" d="M 375.231842 380.821381 C 382.213837 387.767181 397.987762 382.065002 401.969299 385.51178 C 406.073639 389.112671 396.855286 395.366882 397.751495 402.750153 C 398.313324 407.068909 400.041656 409.060699 401.004089 414.895233 C 401.719604 419.429138 397.420776 418.916992 395.051605 420.076904 C 384.148956 424.691101 381.952972 423.900024 365.416077 427.071594 C 351.333771 429.734558 347.013916 435.197418 332.451569 433.888672 C 327.564056 433.477264 328.116486 433.313538 323.449219 430.321259 C 319.193817 427.513123 321.511078 427.916504 322.359741 421.29422 C 323.293976 410.937683 322.096466 407.082153 326.828644 399.619934 C 334.65976 387.287842 335.306213 387.490479 340.42218 379.36438 C 345.537964 371.350769 351.214569 354.266571 357.068237 354.152771 C 361.672058 354.039795 364.342743 356.541504 367.241119 359.496796 C 370.139557 362.452087 370.881226 376.407349 375.231842 380.821381 Z"/>
                        <path id="path9677" fill="#ffd02b" stroke="none" d="M 374.946716 380.909546 C 382.105835 388.014313 398.017456 382.313141 401.847473 385.673615 C 405.921631 389.287079 396.559082 395.665344 397.452484 402.723969 C 398.025848 407.014587 399.654144 409.075195 400.763153 414.862274 C 401.59021 419.369995 397.093384 418.833618 394.693878 419.924683 C 383.431885 424.450653 381.024017 423.88446 365.287292 426.885498 C 351.294708 429.519409 347.003296 434.957092 332.540741 433.65799 C 327.685211 433.252441 328.333618 433.073181 323.657593 430.165222 C 319.498108 427.519958 321.775665 427.877808 322.7164 421.05777 C 323.84549 410.772003 322.463806 406.802124 326.953705 399.724609 C 334.737335 387.473938 335.470978 387.736664 340.552826 379.663879 C 345.634857 371.703522 351.17926 354.560242 356.994446 354.447388 C 361.56781 354.334412 364.221039 356.819641 367.100281 359.755554 C 369.979614 362.691467 370.618469 376.534302 374.946716 380.909546 Z"/>
                        <path id="path9679" fill="#ffd02d" stroke="none" d="M 374.661469 380.997742 C 381.997833 388.261414 398.047211 382.561218 401.725494 385.834503 C 405.769745 389.460571 396.26297 395.962891 397.153381 402.697754 C 397.738373 406.960266 399.266632 409.090668 400.522186 414.830261 C 401.460846 419.310852 396.766022 418.750244 394.336273 419.772522 C 382.714813 424.20929 380.094971 423.868866 365.158417 426.699432 C 351.255585 429.303284 346.992554 434.717682 332.628967 433.426392 C 327.80542 433.027588 328.551697 432.833862 323.865967 430.010162 C 319.80246 427.526764 322.040253 427.83905 323.073059 420.820343 C 324.397919 410.607269 322.831146 406.521057 327.079651 399.829285 C 334.813873 387.660034 335.634735 387.982849 340.683441 379.963379 C 345.73175 372.055359 351.144073 354.853912 356.920593 354.741028 C 361.463715 354.630005 364.099243 357.098755 366.959412 360.015259 C 369.819672 362.931763 370.355804 376.660248 374.661469 380.997742 Z"/>
                        <path id="path9681" fill="#ffd030" stroke="none" d="M 374.376251 381.085907 C 381.889862 388.508545 398.076935 382.809387 401.603668 385.995361 C 405.617767 389.63501 395.966766 396.261353 396.854431 402.672546 C 397.45105 406.905975 398.87912 409.10614 400.281281 414.797302 C 401.33136 419.251709 396.438507 418.66684 393.978546 419.6203 C 381.997681 423.968872 379.165985 423.853271 365.029633 426.513306 C 351.216461 429.087158 346.981903 434.478271 332.717194 433.195709 C 327.925598 432.801788 328.769775 432.594482 324.075317 429.854187 C 320.106781 427.533569 322.303894 427.800293 323.429718 420.583923 C 324.950378 410.441589 323.199463 406.240051 327.204681 399.93396 C 334.890411 387.84613 335.799469 388.229034 340.814087 380.262878 C 345.828735 372.408142 351.108765 355.147552 356.846771 355.035645 C 361.359619 354.924622 363.977478 357.376892 366.818542 360.274048 C 369.659729 363.171143 370.09317 376.786224 374.376251 381.085907 Z"/>
                    </g>
                    <path id="path9683" fill="#ffd133" stroke="none" d="M 374.091003 381.174072 C 381.781891 388.755676 398.106659 383.057434 401.48172 386.15625 C 405.46579 389.809448 395.670532 396.558838 396.55542 402.646362 C 397.163574 406.851685 398.491638 409.120667 400.040344 414.765259 C 401.201996 419.192627 396.111115 418.582489 393.620819 419.468109 C 381.280579 423.728424 378.237061 423.838654 364.900757 426.32724 C 351.177338 428.871033 346.971283 434.238922 332.80542 432.965057 C 328.046783 432.576965 328.986877 432.355103 324.283691 429.699097 C 320.410126 427.540375 322.568451 427.761566 323.786469 420.347443 C 325.502808 410.275909 323.566772 405.959961 327.329681 400.038666 C 334.967926 388.032227 335.963257 388.474243 340.944672 380.562317 C 345.925629 372.759949 351.073456 355.440247 356.772888 355.329315 C 361.255371 355.219238 363.855743 357.655029 366.677734 360.532806 C 369.499817 363.410522 369.830383 376.912201 374.091003 381.174072 Z"/>
                </g>
            </g>
            <linearGradient id="linearGradient4" x1="354.617301" y1="424.034573" x2="424.182242" y2="355.090152" gradientUnits="userSpaceOnUse">
                <stop offset="1e-05" stop-color="#fdf9f6" stop-opacity="0.714844"/>
                <stop offset="1" stop-color="#fdf9f6" stop-opacity="0.09375"/>
            </linearGradient>
            <path id="path3588" fill="url(#linearGradient4)" stroke="none" d="M 360.55426 344.411987 C 365.050568 344.956177 367.839478 347.708435 370.953156 350.883728 C 374.511658 354.512665 378.884338 363.796753 385.164185 368.333099 C 391.444092 372.869446 407.346405 372.391357 411.393188 377.695068 C 415.370178 382.99881 411.322205 390.729553 411.390656 404.964844 C 411.390106 411.035767 412.42511 415.594727 413.122559 419.293213 C 413.210083 419.712158 413.273254 420.051056 413.353546 420.44873 C 397.051056 430.275604 378.321381 433.431641 360.893219 427.492401 C 342.739044 421.305725 329.552887 406.543213 322.880981 387.739716 C 325.558716 383.403107 328.897583 377.961853 332.357513 372.488007 C 338.708466 362.579712 351.286926 344.620483 358.474365 344.411804 C 359.189636 344.394409 359.911896 344.334229 360.55426 344.411987 Z"/>
        </g>
    </g>
    <path id="Path" fill="none" stroke="#000000" stroke-linecap="round" stroke-linejoin="round" visibility="hidden" d="M 512 256 C 512 114.615112 397.384888 0 256 0 C 114.615105 0 0 114.615112 0 256 C 0 397.384888 114.615105 512 256 512 C 397.384888 512 512 397.384888 512 256 Z"/>
</svg>
